<mxfile host="app.diagrams.net" agent="Mozilla/5.0 (Windows NT 10.0; Win64; x64) AppleWebKit/537.36 (KHTML, like Gecko) Chrome/131.0.0.0 Safari/537.36" version="25.0.3">
  <diagram name="Page-1" id="k7e0hBwlv0WMLsoK6vCx">
    <mxGraphModel dx="1166" dy="2865" grid="1" gridSize="10" guides="1" tooltips="1" connect="1" arrows="1" fold="1" page="1" pageScale="1" pageWidth="850" pageHeight="1100" math="0" shadow="0">
      <root>
        <mxCell id="0" />
        <mxCell id="1" parent="0" />
        <mxCell id="ms__zVoi5oWq5A_VaWb3-4" value="" style="ellipse;html=1;shape=startState;fillColor=#000000;strokeColor=#000000;" vertex="1" parent="1">
          <mxGeometry x="253" y="-1930" width="30" height="30" as="geometry" />
        </mxCell>
        <mxCell id="ms__zVoi5oWq5A_VaWb3-5" value="" style="edgeStyle=orthogonalEdgeStyle;html=1;verticalAlign=bottom;endArrow=open;endSize=8;strokeColor=#000000;rounded=0;entryX=0.5;entryY=0;entryDx=0;entryDy=0;" edge="1" source="ms__zVoi5oWq5A_VaWb3-4" parent="1" target="ms__zVoi5oWq5A_VaWb3-28">
          <mxGeometry relative="1" as="geometry">
            <mxPoint x="268" y="-1840" as="targetPoint" />
          </mxGeometry>
        </mxCell>
        <mxCell id="ms__zVoi5oWq5A_VaWb3-18" value="" style="edgeStyle=orthogonalEdgeStyle;rounded=0;orthogonalLoop=1;jettySize=auto;html=1;exitX=0.5;exitY=1;exitDx=0;exitDy=0;entryX=0.5;entryY=0;entryDx=0;entryDy=0;" edge="1" parent="1" source="ms__zVoi5oWq5A_VaWb3-28" target="ms__zVoi5oWq5A_VaWb3-29">
          <mxGeometry relative="1" as="geometry">
            <mxPoint x="275" y="-1630" as="sourcePoint" />
            <mxPoint x="268" y="-1700" as="targetPoint" />
          </mxGeometry>
        </mxCell>
        <mxCell id="ms__zVoi5oWq5A_VaWb3-28" value="&lt;font style=&quot;font-size: 14px;&quot;&gt;Login to the system&lt;/font&gt;" style="rounded=1;whiteSpace=wrap;html=1;fillColor=none;" vertex="1" parent="1">
          <mxGeometry x="208" y="-1860" width="120" height="60" as="geometry" />
        </mxCell>
        <mxCell id="ms__zVoi5oWq5A_VaWb3-29" value="&lt;font style=&quot;font-size: 14px;&quot;&gt;Navigate to the OJT module page&lt;/font&gt;" style="rounded=1;whiteSpace=wrap;html=1;fillColor=none;" vertex="1" parent="1">
          <mxGeometry x="208" y="-1760" width="120" height="60" as="geometry" />
        </mxCell>
        <mxCell id="ms__zVoi5oWq5A_VaWb3-30" value="&lt;font style=&quot;font-size: 14px;&quot;&gt;Finish enrollment&lt;/font&gt;" style="rounded=1;whiteSpace=wrap;html=1;fillColor=none;" vertex="1" parent="1">
          <mxGeometry x="208" y="-1540" width="120" height="60" as="geometry" />
        </mxCell>
        <mxCell id="ms__zVoi5oWq5A_VaWb3-31" value="&lt;font style=&quot;font-size: 14px;&quot;&gt;Authenticate information&lt;/font&gt;" style="rounded=1;whiteSpace=wrap;html=1;fillColor=none;" vertex="1" parent="1">
          <mxGeometry x="523" y="-1660" width="120" height="60" as="geometry" />
        </mxCell>
        <mxCell id="ms__zVoi5oWq5A_VaWb3-32" value="&lt;font style=&quot;font-size: 14px;&quot;&gt;Add details to enroll the course&lt;/font&gt;" style="rounded=1;whiteSpace=wrap;html=1;fillColor=none;" vertex="1" parent="1">
          <mxGeometry x="208" y="-1660" width="120" height="60" as="geometry" />
        </mxCell>
        <mxCell id="ms__zVoi5oWq5A_VaWb3-33" value="" style="edgeStyle=orthogonalEdgeStyle;rounded=0;orthogonalLoop=1;jettySize=auto;html=1;exitX=0.5;exitY=1;exitDx=0;exitDy=0;entryX=0.5;entryY=0;entryDx=0;entryDy=0;" edge="1" parent="1" source="ms__zVoi5oWq5A_VaWb3-29" target="ms__zVoi5oWq5A_VaWb3-32">
          <mxGeometry relative="1" as="geometry">
            <mxPoint x="268" y="-1610" as="sourcePoint" />
            <mxPoint x="268" y="-1580" as="targetPoint" />
          </mxGeometry>
        </mxCell>
        <mxCell id="ms__zVoi5oWq5A_VaWb3-34" value="" style="strokeWidth=2;html=1;shape=mxgraph.flowchart.decision;whiteSpace=wrap;fillColor=none;" vertex="1" parent="1">
          <mxGeometry x="533" y="-1560" width="100" height="100" as="geometry" />
        </mxCell>
        <mxCell id="ms__zVoi5oWq5A_VaWb3-35" value="" style="edgeStyle=orthogonalEdgeStyle;rounded=0;orthogonalLoop=1;jettySize=auto;html=1;exitX=0.5;exitY=1;exitDx=0;exitDy=0;entryX=0.5;entryY=0;entryDx=0;entryDy=0;entryPerimeter=0;" edge="1" parent="1" source="ms__zVoi5oWq5A_VaWb3-31" target="ms__zVoi5oWq5A_VaWb3-34">
          <mxGeometry relative="1" as="geometry">
            <mxPoint x="278" y="-1650" as="sourcePoint" />
            <mxPoint x="278" y="-1600" as="targetPoint" />
          </mxGeometry>
        </mxCell>
        <mxCell id="ms__zVoi5oWq5A_VaWb3-36" value="" style="edgeStyle=orthogonalEdgeStyle;rounded=0;orthogonalLoop=1;jettySize=auto;html=1;exitX=1;exitY=0.5;exitDx=0;exitDy=0;entryX=0;entryY=0.5;entryDx=0;entryDy=0;" edge="1" parent="1" source="ms__zVoi5oWq5A_VaWb3-32" target="ms__zVoi5oWq5A_VaWb3-31">
          <mxGeometry relative="1" as="geometry">
            <mxPoint x="288" y="-1640" as="sourcePoint" />
            <mxPoint x="288" y="-1590" as="targetPoint" />
          </mxGeometry>
        </mxCell>
        <mxCell id="ms__zVoi5oWq5A_VaWb3-37" value="" style="edgeStyle=orthogonalEdgeStyle;rounded=0;orthogonalLoop=1;jettySize=auto;html=1;exitX=0;exitY=0.5;exitDx=0;exitDy=0;exitPerimeter=0;entryX=1;entryY=0.5;entryDx=0;entryDy=0;" edge="1" parent="1" source="ms__zVoi5oWq5A_VaWb3-34" target="ms__zVoi5oWq5A_VaWb3-30">
          <mxGeometry relative="1" as="geometry">
            <mxPoint x="338" y="-1570" as="sourcePoint" />
            <mxPoint x="353" y="-1440" as="targetPoint" />
          </mxGeometry>
        </mxCell>
        <mxCell id="ms__zVoi5oWq5A_VaWb3-38" value="[Authenticated]" style="text;html=1;align=center;verticalAlign=middle;resizable=0;points=[];autosize=1;strokeColor=none;fillColor=none;" vertex="1" parent="1">
          <mxGeometry x="423" y="-1500" width="100" height="30" as="geometry" />
        </mxCell>
        <mxCell id="ms__zVoi5oWq5A_VaWb3-39" value="" style="edgeStyle=orthogonalEdgeStyle;rounded=0;orthogonalLoop=1;jettySize=auto;html=1;exitX=0.5;exitY=1;exitDx=0;exitDy=0;exitPerimeter=0;entryX=1;entryY=0.5;entryDx=0;entryDy=0;" edge="1" parent="1" source="ms__zVoi5oWq5A_VaWb3-34" target="ms__zVoi5oWq5A_VaWb3-45">
          <mxGeometry relative="1" as="geometry">
            <mxPoint x="593" y="-1540" as="sourcePoint" />
            <mxPoint x="585.8" y="-1331.635" as="targetPoint" />
            <Array as="points">
              <mxPoint x="583" y="-1370" />
              <mxPoint x="328" y="-1370" />
            </Array>
          </mxGeometry>
        </mxCell>
        <mxCell id="ms__zVoi5oWq5A_VaWb3-41" value="[Unauthenticated]" style="edgeLabel;html=1;align=center;verticalAlign=middle;resizable=0;points=[];" vertex="1" connectable="0" parent="ms__zVoi5oWq5A_VaWb3-39">
          <mxGeometry x="-0.2367" y="-4" relative="1" as="geometry">
            <mxPoint x="-56" y="4" as="offset" />
          </mxGeometry>
        </mxCell>
        <mxCell id="ms__zVoi5oWq5A_VaWb3-45" value="&lt;font style=&quot;font-size: 14px;&quot;&gt;Display error message&lt;/font&gt;" style="rounded=1;whiteSpace=wrap;html=1;fillColor=none;" vertex="1" parent="1">
          <mxGeometry x="208" y="-1400" width="120" height="60" as="geometry" />
        </mxCell>
        <mxCell id="ms__zVoi5oWq5A_VaWb3-46" value="" style="ellipse;html=1;shape=endState;fillColor=#000000;strokeColor=#000000;" vertex="1" parent="1">
          <mxGeometry x="253" y="-1300" width="30" height="30" as="geometry" />
        </mxCell>
        <mxCell id="ms__zVoi5oWq5A_VaWb3-47" value="" style="edgeStyle=orthogonalEdgeStyle;rounded=0;orthogonalLoop=1;jettySize=auto;html=1;exitX=0.5;exitY=1;exitDx=0;exitDy=0;" edge="1" parent="1" source="ms__zVoi5oWq5A_VaWb3-30">
          <mxGeometry relative="1" as="geometry">
            <mxPoint x="268" y="-1470" as="sourcePoint" />
            <mxPoint x="268" y="-1440" as="targetPoint" />
            <Array as="points" />
          </mxGeometry>
        </mxCell>
        <mxCell id="ms__zVoi5oWq5A_VaWb3-50" value="" style="endArrow=none;html=1;rounded=0;entryX=1;entryY=0.075;entryDx=0;entryDy=0;entryPerimeter=0;exitX=0.001;exitY=0.075;exitDx=0;exitDy=0;exitPerimeter=0;" edge="1" parent="1">
          <mxGeometry width="50" height="50" relative="1" as="geometry">
            <mxPoint x="129.99999999999991" y="-1960" as="sourcePoint" />
            <mxPoint x="719.41" y="-1960" as="targetPoint" />
            <Array as="points">
              <mxPoint x="399.41" y="-1959" />
            </Array>
          </mxGeometry>
        </mxCell>
        <mxCell id="ms__zVoi5oWq5A_VaWb3-51" value="" style="endArrow=none;html=1;rounded=0;" edge="1" parent="1">
          <mxGeometry width="50" height="50" relative="1" as="geometry">
            <mxPoint x="425" y="-1240" as="sourcePoint" />
            <mxPoint x="425" y="-2010" as="targetPoint" />
          </mxGeometry>
        </mxCell>
        <mxCell id="ms__zVoi5oWq5A_VaWb3-52" value="&lt;span style=&quot;font-size: 14px;&quot;&gt;Trainee&lt;/span&gt;" style="text;html=1;align=center;verticalAlign=middle;whiteSpace=wrap;rounded=0;" vertex="1" parent="1">
          <mxGeometry x="246.8" y="-2000" width="60" height="30" as="geometry" />
        </mxCell>
        <mxCell id="ms__zVoi5oWq5A_VaWb3-53" value="&lt;span style=&quot;font-size: 14px;&quot;&gt;Server&lt;/span&gt;" style="text;html=1;align=center;verticalAlign=middle;whiteSpace=wrap;rounded=0;" vertex="1" parent="1">
          <mxGeometry x="541.8" y="-2000" width="60" height="30" as="geometry" />
        </mxCell>
        <mxCell id="ms__zVoi5oWq5A_VaWb3-54" value="&lt;font style=&quot;font-size: 18px;&quot;&gt;Enroll to OJT Course&lt;/font&gt;" style="text;html=1;align=center;verticalAlign=middle;whiteSpace=wrap;rounded=0;" vertex="1" parent="1">
          <mxGeometry x="68.8" y="-2080" width="250" height="30" as="geometry" />
        </mxCell>
        <mxCell id="ms__zVoi5oWq5A_VaWb3-56" value="&lt;font style=&quot;font-size: 18px;&quot;&gt;View Tasks&lt;/font&gt;" style="text;html=1;align=center;verticalAlign=middle;whiteSpace=wrap;rounded=0;" vertex="1" parent="1">
          <mxGeometry x="47.96999999999999" y="-980" width="250" height="30" as="geometry" />
        </mxCell>
        <mxCell id="ms__zVoi5oWq5A_VaWb3-58" value="" style="ellipse;html=1;shape=startState;fillColor=#000000;strokeColor=#000000;" vertex="1" parent="1">
          <mxGeometry x="157.97" y="-790" width="30" height="30" as="geometry" />
        </mxCell>
        <mxCell id="ms__zVoi5oWq5A_VaWb3-59" value="" style="edgeStyle=orthogonalEdgeStyle;html=1;verticalAlign=bottom;endArrow=open;endSize=8;strokeColor=#000000;rounded=0;entryX=0.5;entryY=0;entryDx=0;entryDy=0;" edge="1" parent="1" target="ms__zVoi5oWq5A_VaWb3-61">
          <mxGeometry relative="1" as="geometry">
            <mxPoint x="172.97" y="-730" as="targetPoint" />
            <mxPoint x="172.97" y="-760" as="sourcePoint" />
          </mxGeometry>
        </mxCell>
        <mxCell id="ms__zVoi5oWq5A_VaWb3-60" value="" style="edgeStyle=orthogonalEdgeStyle;rounded=0;orthogonalLoop=1;jettySize=auto;html=1;exitX=0.5;exitY=1;exitDx=0;exitDy=0;entryX=0.5;entryY=0;entryDx=0;entryDy=0;" edge="1" parent="1" source="ms__zVoi5oWq5A_VaWb3-61" target="ms__zVoi5oWq5A_VaWb3-63">
          <mxGeometry relative="1" as="geometry">
            <mxPoint x="179.97" y="-520" as="sourcePoint" />
            <mxPoint x="172.97" y="-610" as="targetPoint" />
          </mxGeometry>
        </mxCell>
        <mxCell id="ms__zVoi5oWq5A_VaWb3-61" value="&lt;font style=&quot;font-size: 14px;&quot;&gt;Open OJT module page&lt;/font&gt;" style="rounded=1;whiteSpace=wrap;html=1;fillColor=none;" vertex="1" parent="1">
          <mxGeometry x="112.97" y="-720" width="120" height="60" as="geometry" />
        </mxCell>
        <mxCell id="ms__zVoi5oWq5A_VaWb3-63" value="&lt;font style=&quot;font-size: 14px;&quot;&gt;Navigate to the tasks page&lt;/font&gt;" style="rounded=1;whiteSpace=wrap;html=1;fillColor=none;" vertex="1" parent="1">
          <mxGeometry x="112.97" y="-620" width="120" height="60" as="geometry" />
        </mxCell>
        <mxCell id="ms__zVoi5oWq5A_VaWb3-65" value="&lt;font style=&quot;font-size: 18px;&quot;&gt;Submit Training Logs&lt;/font&gt;" style="text;html=1;align=center;verticalAlign=middle;whiteSpace=wrap;rounded=0;" vertex="1" parent="1">
          <mxGeometry x="100" y="120" width="250" height="30" as="geometry" />
        </mxCell>
        <mxCell id="ms__zVoi5oWq5A_VaWb3-67" value="&lt;font style=&quot;font-size: 18px;&quot;&gt;Upload Medical Documents&lt;/font&gt;" style="text;html=1;align=center;verticalAlign=middle;whiteSpace=wrap;rounded=0;" vertex="1" parent="1">
          <mxGeometry x="100" y="1210" width="250" height="30" as="geometry" />
        </mxCell>
        <mxCell id="ms__zVoi5oWq5A_VaWb3-69" value="&lt;font style=&quot;font-size: 18px;&quot;&gt;Review Log Submissions&lt;/font&gt;" style="text;html=1;align=center;verticalAlign=middle;whiteSpace=wrap;rounded=0;" vertex="1" parent="1">
          <mxGeometry x="134.73000000000002" y="3430" width="250" height="30" as="geometry" />
        </mxCell>
        <mxCell id="ms__zVoi5oWq5A_VaWb3-75" value="" style="ellipse;html=1;shape=startState;fillColor=#000000;strokeColor=#000000;" vertex="1" parent="1">
          <mxGeometry x="212.48000000000002" y="270" width="30" height="30" as="geometry" />
        </mxCell>
        <mxCell id="ms__zVoi5oWq5A_VaWb3-76" value="" style="edgeStyle=orthogonalEdgeStyle;html=1;verticalAlign=bottom;endArrow=open;endSize=8;strokeColor=#000000;rounded=0;entryX=0.5;entryY=0;entryDx=0;entryDy=0;" edge="1" parent="1" source="ms__zVoi5oWq5A_VaWb3-75" target="ms__zVoi5oWq5A_VaWb3-78">
          <mxGeometry relative="1" as="geometry">
            <mxPoint x="227.48000000000002" y="340" as="targetPoint" />
          </mxGeometry>
        </mxCell>
        <mxCell id="ms__zVoi5oWq5A_VaWb3-77" value="" style="edgeStyle=orthogonalEdgeStyle;rounded=0;orthogonalLoop=1;jettySize=auto;html=1;exitX=0.5;exitY=1;exitDx=0;exitDy=0;" edge="1" parent="1" source="ms__zVoi5oWq5A_VaWb3-78">
          <mxGeometry relative="1" as="geometry">
            <mxPoint x="234.48000000000002" y="550" as="sourcePoint" />
            <mxPoint x="227.68" y="440" as="targetPoint" />
          </mxGeometry>
        </mxCell>
        <mxCell id="ms__zVoi5oWq5A_VaWb3-78" value="&lt;font style=&quot;font-size: 14px;&quot;&gt;Open OJT module page&lt;/font&gt;" style="rounded=1;whiteSpace=wrap;html=1;fillColor=none;" vertex="1" parent="1">
          <mxGeometry x="167.48000000000002" y="340" width="120" height="60" as="geometry" />
        </mxCell>
        <mxCell id="ms__zVoi5oWq5A_VaWb3-79" value="&lt;p data-pm-slice=&quot;1 1 [&amp;quot;list&amp;quot;,{&amp;quot;spread&amp;quot;:false,&amp;quot;start&amp;quot;:919,&amp;quot;end&amp;quot;:1227},&amp;quot;regular_list_item&amp;quot;,{&amp;quot;start&amp;quot;:966,&amp;quot;end&amp;quot;:1227},&amp;quot;ordered_list&amp;quot;,{&amp;quot;spread&amp;quot;:false,&amp;quot;startingNumber&amp;quot;:1,&amp;quot;start&amp;quot;:981,&amp;quot;end&amp;quot;:1227},&amp;quot;regular_list_item&amp;quot;,{&amp;quot;start&amp;quot;:992,&amp;quot;end&amp;quot;:1026}]&quot;&gt;&lt;font style=&quot;font-size: 14px;&quot;&gt;Open the training logs section&lt;/font&gt;&lt;/p&gt;" style="rounded=1;whiteSpace=wrap;html=1;fillColor=none;" vertex="1" parent="1">
          <mxGeometry x="167.48000000000002" y="440" width="120" height="60" as="geometry" />
        </mxCell>
        <mxCell id="ms__zVoi5oWq5A_VaWb3-82" value="&lt;p data-pm-slice=&quot;1 1 [&amp;quot;list&amp;quot;,{&amp;quot;spread&amp;quot;:false,&amp;quot;start&amp;quot;:701,&amp;quot;end&amp;quot;:884},&amp;quot;regular_list_item&amp;quot;,{&amp;quot;start&amp;quot;:739,&amp;quot;end&amp;quot;:884},&amp;quot;ordered_list&amp;quot;,{&amp;quot;spread&amp;quot;:false,&amp;quot;startingNumber&amp;quot;:1,&amp;quot;start&amp;quot;:754,&amp;quot;end&amp;quot;:884},&amp;quot;regular_list_item&amp;quot;,{&amp;quot;start&amp;quot;:798,&amp;quot;end&amp;quot;:840}]&quot;&gt;&lt;font style=&quot;font-size: 14px;&quot;&gt;View tasks assigned by the trainer&lt;/font&gt;&lt;/p&gt;" style="rounded=1;whiteSpace=wrap;html=1;fillColor=none;" vertex="1" parent="1">
          <mxGeometry x="112.97" y="-520" width="120" height="60" as="geometry" />
        </mxCell>
        <mxCell id="ms__zVoi5oWq5A_VaWb3-86" value="" style="edgeStyle=orthogonalEdgeStyle;rounded=0;orthogonalLoop=1;jettySize=auto;html=1;exitX=0.5;exitY=1;exitDx=0;exitDy=0;entryX=0.5;entryY=0;entryDx=0;entryDy=0;" edge="1" parent="1" source="ms__zVoi5oWq5A_VaWb3-63" target="ms__zVoi5oWq5A_VaWb3-82">
          <mxGeometry relative="1" as="geometry">
            <mxPoint x="152.97" y="-500" as="sourcePoint" />
            <mxPoint x="152.97" y="-550" as="targetPoint" />
          </mxGeometry>
        </mxCell>
        <mxCell id="ms__zVoi5oWq5A_VaWb3-87" value="&lt;p data-pm-slice=&quot;1 1 [&amp;quot;list&amp;quot;,{&amp;quot;spread&amp;quot;:false,&amp;quot;start&amp;quot;:919,&amp;quot;end&amp;quot;:1227},&amp;quot;regular_list_item&amp;quot;,{&amp;quot;start&amp;quot;:966,&amp;quot;end&amp;quot;:1227},&amp;quot;ordered_list&amp;quot;,{&amp;quot;spread&amp;quot;:false,&amp;quot;startingNumber&amp;quot;:1,&amp;quot;start&amp;quot;:981,&amp;quot;end&amp;quot;:1227},&amp;quot;regular_list_item&amp;quot;,{&amp;quot;start&amp;quot;:992,&amp;quot;end&amp;quot;:1026}]&quot;&gt;&lt;font style=&quot;font-size: 14px;&quot;&gt;Upload Training Logs&lt;/font&gt;&lt;/p&gt;" style="rounded=1;whiteSpace=wrap;html=1;fillColor=none;" vertex="1" parent="1">
          <mxGeometry x="167.48000000000002" y="540" width="120" height="60" as="geometry" />
        </mxCell>
        <mxCell id="ms__zVoi5oWq5A_VaWb3-88" value="" style="edgeStyle=orthogonalEdgeStyle;rounded=0;orthogonalLoop=1;jettySize=auto;html=1;exitX=0.5;exitY=1;exitDx=0;exitDy=0;entryX=0.5;entryY=0;entryDx=0;entryDy=0;" edge="1" parent="1" source="ms__zVoi5oWq5A_VaWb3-79" target="ms__zVoi5oWq5A_VaWb3-87">
          <mxGeometry relative="1" as="geometry">
            <mxPoint x="237.48000000000002" y="420" as="sourcePoint" />
            <mxPoint x="237.48000000000002" y="470" as="targetPoint" />
          </mxGeometry>
        </mxCell>
        <mxCell id="ms__zVoi5oWq5A_VaWb3-90" value="" style="strokeWidth=2;html=1;shape=mxgraph.flowchart.decision;whiteSpace=wrap;fillColor=none;" vertex="1" parent="1">
          <mxGeometry x="410.15000000000003" y="520" width="100" height="100" as="geometry" />
        </mxCell>
        <mxCell id="ms__zVoi5oWq5A_VaWb3-94" value="&lt;font style=&quot;font-size: 14px;&quot;&gt;Display error message&lt;/font&gt;" style="rounded=1;whiteSpace=wrap;html=1;fillColor=none;" vertex="1" parent="1">
          <mxGeometry x="167.48000000000002" y="650" width="120" height="60" as="geometry" />
        </mxCell>
        <mxCell id="ms__zVoi5oWq5A_VaWb3-95" value="" style="ellipse;html=1;shape=endState;fillColor=#000000;strokeColor=#000000;" vertex="1" parent="1">
          <mxGeometry x="212.48000000000002" y="750" width="30" height="30" as="geometry" />
        </mxCell>
        <mxCell id="ms__zVoi5oWq5A_VaWb3-96" value="" style="edgeStyle=orthogonalEdgeStyle;rounded=0;orthogonalLoop=1;jettySize=auto;html=1;exitX=0.5;exitY=1;exitDx=0;exitDy=0;" edge="1" parent="1" source="ms__zVoi5oWq5A_VaWb3-94">
          <mxGeometry relative="1" as="geometry">
            <mxPoint x="237.48000000000002" y="570" as="sourcePoint" />
            <mxPoint x="227.48000000000002" y="750" as="targetPoint" />
            <Array as="points">
              <mxPoint x="227.48000000000002" y="750" />
              <mxPoint x="227.48000000000002" y="750" />
            </Array>
          </mxGeometry>
        </mxCell>
        <mxCell id="ms__zVoi5oWq5A_VaWb3-97" value="" style="edgeStyle=orthogonalEdgeStyle;rounded=0;orthogonalLoop=1;jettySize=auto;html=1;exitX=1;exitY=0.5;exitDx=0;exitDy=0;entryX=0;entryY=0.5;entryDx=0;entryDy=0;entryPerimeter=0;" edge="1" parent="1" source="ms__zVoi5oWq5A_VaWb3-87" target="ms__zVoi5oWq5A_VaWb3-90">
          <mxGeometry relative="1" as="geometry">
            <mxPoint x="492.48" y="679.0899999999999" as="sourcePoint" />
            <mxPoint x="287.48" y="679.0899999999999" as="targetPoint" />
          </mxGeometry>
        </mxCell>
        <mxCell id="ms__zVoi5oWq5A_VaWb3-98" value="" style="edgeStyle=orthogonalEdgeStyle;rounded=0;orthogonalLoop=1;jettySize=auto;html=1;exitX=0.5;exitY=1;exitDx=0;exitDy=0;entryX=1;entryY=0.5;entryDx=0;entryDy=0;exitPerimeter=0;" edge="1" parent="1" source="ms__zVoi5oWq5A_VaWb3-90" target="ms__zVoi5oWq5A_VaWb3-94">
          <mxGeometry relative="1" as="geometry">
            <mxPoint x="309.48" y="700" as="sourcePoint" />
            <mxPoint x="504.47999999999996" y="700" as="targetPoint" />
          </mxGeometry>
        </mxCell>
        <mxCell id="ms__zVoi5oWq5A_VaWb3-99" value="[Invalid attempt]&lt;span style=&quot;color: rgba(0, 0, 0, 0); font-family: monospace; font-size: 0px; text-align: start; background-color: rgb(251, 251, 251);&quot;&gt;%3CmxGraphModel%3E%3Croot%3E%3CmxCell%20id%3D%220%22%2F%3E%3CmxCell%20id%3D%221%22%20parent%3D%220%22%2F%3E%3CmxCell%20id%3D%222%22%20value%3D%22%22%20style%3D%22edgeStyle%3DorthogonalEdgeStyle%3Brounded%3D0%3BorthogonalLoop%3D1%3BjettySize%3Dauto%3Bhtml%3D1%3BexitX%3D1%3BexitY%3D0.5%3BexitDx%3D0%3BexitDy%3D0%3BentryX%3D0%3BentryY%3D0.5%3BentryDx%3D0%3BentryDy%3D0%3BentryPerimeter%3D0%3B%22%20edge%3D%221%22%20parent%3D%221%22%3E%3CmxGeometry%20relative%3D%221%22%20as%3D%22geometry%22%3E%3CmxPoint%20x%3D%22328%22%20y%3D%22-240%22%20as%3D%22sourcePoint%22%2F%3E%3CmxPoint%20x%3D%22523%22%20y%3D%22-240%22%20as%3D%22targetPoint%22%2F%3E%3C%2FmxGeometry%3E%3C%2FmxCell%3E%3C%2Froot%3E%3C%2FmxGraphModel%3E&lt;/span&gt;&lt;span style=&quot;color: rgba(0, 0, 0, 0); font-family: monospace; font-size: 0px; text-align: start; background-color: rgb(251, 251, 251);&quot;&gt;%3CmxGraphModel%3E%3Croot%3E%3CmxCell%20id%3D%220%22%2F%3E%3CmxCell%20id%3D%221%22%20parent%3D%220%22%2F%3E%3CmxCell%20id%3D%222%22%20value%3D%22%22%20style%3D%22edgeStyle%3DorthogonalEdgeStyle%3Brounded%3D0%3BorthogonalLoop%3D1%3BjettySize%3Dauto%3Bhtml%3D1%3BexitX%3D1%3BexitY%3D0.5%3BexitDx%3D0%3BexitDy%3D0%3BentryX%3D0%3BentryY%3D0.5%3BentryDx%3D0%3BentryDy%3D0%3BentryPerimeter%3D0%3B%22%20edge%3D%221%22%20parent%3D%221%22%3E%3CmxGeometry%20relative%3D%221%22%20as%3D%22geometry%22%3E%3CmxPoint%20x%3D%22328%22%20y%3D%22-240%22%20as%3D%22sourcePoint%22%2F%3E%3CmxPoint%20x%3D%22523%22%20y%3D%22-240%22%20as%3D%22targetPoint%22%2F%3E%3C%2FmxGeometry%3E%3C%2FmxCell%3E%3C%2Froot%3E%3C%2FmxGraphModel%3E&lt;/span&gt;" style="edgeLabel;html=1;align=center;verticalAlign=middle;resizable=0;points=[];" vertex="1" connectable="0" parent="ms__zVoi5oWq5A_VaWb3-98">
          <mxGeometry x="-0.0404" y="1" relative="1" as="geometry">
            <mxPoint x="36" y="-1" as="offset" />
          </mxGeometry>
        </mxCell>
        <mxCell id="ms__zVoi5oWq5A_VaWb3-101" value="&lt;font style=&quot;font-size: 14px;&quot;&gt;Add log to the system&lt;/font&gt;" style="rounded=1;whiteSpace=wrap;html=1;fillColor=none;" vertex="1" parent="1">
          <mxGeometry x="416.34000000000003" y="800" width="120" height="60" as="geometry" />
        </mxCell>
        <mxCell id="ms__zVoi5oWq5A_VaWb3-103" value="" style="rounded=0;whiteSpace=wrap;html=1;fillColor=none;" vertex="1" parent="1">
          <mxGeometry x="135.3" y="210" width="565.38" height="750" as="geometry" />
        </mxCell>
        <mxCell id="ms__zVoi5oWq5A_VaWb3-107" value="" style="endArrow=none;html=1;rounded=0;" edge="1" parent="1">
          <mxGeometry width="50" height="50" relative="1" as="geometry">
            <mxPoint x="367.68" y="960" as="sourcePoint" />
            <mxPoint x="367.68" y="210" as="targetPoint" />
          </mxGeometry>
        </mxCell>
        <mxCell id="ms__zVoi5oWq5A_VaWb3-108" value="&lt;span style=&quot;font-size: 14px;&quot;&gt;Trainee&lt;/span&gt;" style="text;html=1;align=center;verticalAlign=middle;whiteSpace=wrap;rounded=0;" vertex="1" parent="1">
          <mxGeometry x="239.48000000000002" y="220" width="60" height="30" as="geometry" />
        </mxCell>
        <mxCell id="ms__zVoi5oWq5A_VaWb3-109" value="&lt;span style=&quot;font-size: 14px;&quot;&gt;Server&lt;/span&gt;" style="text;html=1;align=center;verticalAlign=middle;whiteSpace=wrap;rounded=0;" vertex="1" parent="1">
          <mxGeometry x="522.4799999999999" y="220" width="60" height="30" as="geometry" />
        </mxCell>
        <mxCell id="ms__zVoi5oWq5A_VaWb3-114" value="" style="ellipse;html=1;shape=endState;fillColor=#000000;strokeColor=#000000;" vertex="1" parent="1">
          <mxGeometry x="253" y="-1440" width="30" height="30" as="geometry" />
        </mxCell>
        <mxCell id="ms__zVoi5oWq5A_VaWb3-119" value="" style="endArrow=classic;html=1;rounded=0;entryX=0.5;entryY=0;entryDx=0;entryDy=0;exitX=0.5;exitY=1;exitDx=0;exitDy=0;" edge="1" parent="1" source="ms__zVoi5oWq5A_VaWb3-45" target="ms__zVoi5oWq5A_VaWb3-46">
          <mxGeometry width="50" height="50" relative="1" as="geometry">
            <mxPoint x="280" y="-1300" as="sourcePoint" />
            <mxPoint x="330" y="-1350" as="targetPoint" />
          </mxGeometry>
        </mxCell>
        <mxCell id="ms__zVoi5oWq5A_VaWb3-123" value="" style="rounded=0;whiteSpace=wrap;html=1;fillColor=none;" vertex="1" parent="1">
          <mxGeometry x="130" y="-2010" width="590" height="770" as="geometry" />
        </mxCell>
        <mxCell id="ms__zVoi5oWq5A_VaWb3-125" value="" style="rounded=0;whiteSpace=wrap;html=1;fillColor=none;" vertex="1" parent="1">
          <mxGeometry x="38.64999999999998" y="-870" width="280" height="510" as="geometry" />
        </mxCell>
        <mxCell id="ms__zVoi5oWq5A_VaWb3-126" value="" style="endArrow=none;html=1;rounded=0;exitX=-0.004;exitY=0.086;exitDx=0;exitDy=0;exitPerimeter=0;entryX=0.998;entryY=0.084;entryDx=0;entryDy=0;entryPerimeter=0;" edge="1" parent="1" source="ms__zVoi5oWq5A_VaWb3-125" target="ms__zVoi5oWq5A_VaWb3-125">
          <mxGeometry width="50" height="50" relative="1" as="geometry">
            <mxPoint x="232.97" y="-860" as="sourcePoint" />
            <mxPoint x="282.96999999999997" y="-910" as="targetPoint" />
          </mxGeometry>
        </mxCell>
        <mxCell id="ms__zVoi5oWq5A_VaWb3-127" value="&lt;font style=&quot;font-size: 14px;&quot;&gt;Trainee&lt;/font&gt;" style="text;html=1;align=center;verticalAlign=middle;whiteSpace=wrap;rounded=0;" vertex="1" parent="1">
          <mxGeometry x="139.32999999999996" y="-860" width="60" height="30" as="geometry" />
        </mxCell>
        <mxCell id="ms__zVoi5oWq5A_VaWb3-128" value="" style="endArrow=classic;html=1;rounded=0;exitX=0.5;exitY=1;exitDx=0;exitDy=0;" edge="1" parent="1" source="ms__zVoi5oWq5A_VaWb3-101">
          <mxGeometry width="50" height="50" relative="1" as="geometry">
            <mxPoint x="276.34000000000003" y="810" as="sourcePoint" />
            <mxPoint x="476.5400000000001" y="910" as="targetPoint" />
          </mxGeometry>
        </mxCell>
        <mxCell id="ms__zVoi5oWq5A_VaWb3-129" value="" style="ellipse;html=1;shape=endState;fillColor=#000000;strokeColor=#000000;" vertex="1" parent="1">
          <mxGeometry x="461.34000000000003" y="910" width="30" height="30" as="geometry" />
        </mxCell>
        <mxCell id="ms__zVoi5oWq5A_VaWb3-130" value="" style="endArrow=none;html=1;rounded=0;exitX=-0.001;exitY=0.053;exitDx=0;exitDy=0;exitPerimeter=0;" edge="1" parent="1" source="ms__zVoi5oWq5A_VaWb3-103">
          <mxGeometry width="50" height="50" relative="1" as="geometry">
            <mxPoint x="132.68" y="259" as="sourcePoint" />
            <mxPoint x="701.6800000000001" y="250" as="targetPoint" />
          </mxGeometry>
        </mxCell>
        <mxCell id="ms__zVoi5oWq5A_VaWb3-131" value="" style="ellipse;html=1;shape=startState;fillColor=#000000;strokeColor=#000000;" vertex="1" parent="1">
          <mxGeometry x="187.18" y="1340" width="30" height="30" as="geometry" />
        </mxCell>
        <mxCell id="ms__zVoi5oWq5A_VaWb3-132" value="" style="edgeStyle=orthogonalEdgeStyle;html=1;verticalAlign=bottom;endArrow=open;endSize=8;strokeColor=#000000;rounded=0;entryX=0.5;entryY=0;entryDx=0;entryDy=0;" edge="1" parent="1" source="ms__zVoi5oWq5A_VaWb3-131" target="ms__zVoi5oWq5A_VaWb3-134">
          <mxGeometry relative="1" as="geometry">
            <mxPoint x="202.18" y="1410" as="targetPoint" />
          </mxGeometry>
        </mxCell>
        <mxCell id="ms__zVoi5oWq5A_VaWb3-133" value="" style="edgeStyle=orthogonalEdgeStyle;rounded=0;orthogonalLoop=1;jettySize=auto;html=1;exitX=0.5;exitY=1;exitDx=0;exitDy=0;entryX=0.5;entryY=0;entryDx=0;entryDy=0;" edge="1" parent="1" source="ms__zVoi5oWq5A_VaWb3-134" target="ms__zVoi5oWq5A_VaWb3-135">
          <mxGeometry relative="1" as="geometry">
            <mxPoint x="209.18" y="1620" as="sourcePoint" />
            <mxPoint x="202.18" y="1530" as="targetPoint" />
          </mxGeometry>
        </mxCell>
        <mxCell id="ms__zVoi5oWq5A_VaWb3-134" value="&lt;font style=&quot;font-size: 14px;&quot;&gt;Open OJT module page&lt;/font&gt;" style="rounded=1;whiteSpace=wrap;html=1;fillColor=none;" vertex="1" parent="1">
          <mxGeometry x="142.18" y="1410" width="120" height="60" as="geometry" />
        </mxCell>
        <mxCell id="ms__zVoi5oWq5A_VaWb3-135" value="&lt;p data-pm-slice=&quot;1 1 [&amp;quot;list&amp;quot;,{&amp;quot;spread&amp;quot;:false,&amp;quot;start&amp;quot;:919,&amp;quot;end&amp;quot;:1227},&amp;quot;regular_list_item&amp;quot;,{&amp;quot;start&amp;quot;:966,&amp;quot;end&amp;quot;:1227},&amp;quot;ordered_list&amp;quot;,{&amp;quot;spread&amp;quot;:false,&amp;quot;startingNumber&amp;quot;:1,&amp;quot;start&amp;quot;:981,&amp;quot;end&amp;quot;:1227},&amp;quot;regular_list_item&amp;quot;,{&amp;quot;start&amp;quot;:992,&amp;quot;end&amp;quot;:1026}]&quot;&gt;&lt;font style=&quot;font-size: 14px;&quot;&gt;Open the leave section&lt;/font&gt;&lt;/p&gt;" style="rounded=1;whiteSpace=wrap;html=1;fillColor=none;" vertex="1" parent="1">
          <mxGeometry x="142.18" y="1510" width="120" height="60" as="geometry" />
        </mxCell>
        <mxCell id="ms__zVoi5oWq5A_VaWb3-136" value="&lt;p data-pm-slice=&quot;1 1 [&amp;quot;list&amp;quot;,{&amp;quot;spread&amp;quot;:false,&amp;quot;start&amp;quot;:919,&amp;quot;end&amp;quot;:1227},&amp;quot;regular_list_item&amp;quot;,{&amp;quot;start&amp;quot;:966,&amp;quot;end&amp;quot;:1227},&amp;quot;ordered_list&amp;quot;,{&amp;quot;spread&amp;quot;:false,&amp;quot;startingNumber&amp;quot;:1,&amp;quot;start&amp;quot;:981,&amp;quot;end&amp;quot;:1227},&amp;quot;regular_list_item&amp;quot;,{&amp;quot;start&amp;quot;:992,&amp;quot;end&amp;quot;:1026}]&quot;&gt;&lt;font style=&quot;font-size: 14px;&quot;&gt;Upload medical document&lt;/font&gt;&lt;/p&gt;" style="rounded=1;whiteSpace=wrap;html=1;fillColor=none;" vertex="1" parent="1">
          <mxGeometry x="142.18" y="1610" width="120" height="60" as="geometry" />
        </mxCell>
        <mxCell id="ms__zVoi5oWq5A_VaWb3-137" value="" style="edgeStyle=orthogonalEdgeStyle;rounded=0;orthogonalLoop=1;jettySize=auto;html=1;exitX=0.5;exitY=1;exitDx=0;exitDy=0;entryX=0.5;entryY=0;entryDx=0;entryDy=0;" edge="1" parent="1" source="ms__zVoi5oWq5A_VaWb3-135" target="ms__zVoi5oWq5A_VaWb3-136">
          <mxGeometry relative="1" as="geometry">
            <mxPoint x="212.18" y="1490" as="sourcePoint" />
            <mxPoint x="212.18" y="1540" as="targetPoint" />
          </mxGeometry>
        </mxCell>
        <mxCell id="ms__zVoi5oWq5A_VaWb3-138" value="" style="strokeWidth=2;html=1;shape=mxgraph.flowchart.decision;whiteSpace=wrap;fillColor=none;" vertex="1" parent="1">
          <mxGeometry x="457.18" y="1590" width="100" height="100" as="geometry" />
        </mxCell>
        <mxCell id="ms__zVoi5oWq5A_VaWb3-139" value="&lt;font style=&quot;font-size: 14px;&quot;&gt;Display error message&lt;/font&gt;" style="rounded=1;whiteSpace=wrap;html=1;fillColor=none;" vertex="1" parent="1">
          <mxGeometry x="142.18" y="1720" width="120" height="60" as="geometry" />
        </mxCell>
        <mxCell id="ms__zVoi5oWq5A_VaWb3-140" value="" style="ellipse;html=1;shape=endState;fillColor=#000000;strokeColor=#000000;" vertex="1" parent="1">
          <mxGeometry x="187.18" y="1820" width="30" height="30" as="geometry" />
        </mxCell>
        <mxCell id="ms__zVoi5oWq5A_VaWb3-141" value="" style="edgeStyle=orthogonalEdgeStyle;rounded=0;orthogonalLoop=1;jettySize=auto;html=1;exitX=0.5;exitY=1;exitDx=0;exitDy=0;" edge="1" parent="1" source="ms__zVoi5oWq5A_VaWb3-139">
          <mxGeometry relative="1" as="geometry">
            <mxPoint x="212.18" y="1640" as="sourcePoint" />
            <mxPoint x="202.18" y="1820" as="targetPoint" />
            <Array as="points">
              <mxPoint x="202.18" y="1820" />
              <mxPoint x="202.18" y="1820" />
            </Array>
          </mxGeometry>
        </mxCell>
        <mxCell id="ms__zVoi5oWq5A_VaWb3-142" value="" style="edgeStyle=orthogonalEdgeStyle;rounded=0;orthogonalLoop=1;jettySize=auto;html=1;exitX=1;exitY=0.5;exitDx=0;exitDy=0;entryX=0;entryY=0.5;entryDx=0;entryDy=0;entryPerimeter=0;" edge="1" parent="1" source="ms__zVoi5oWq5A_VaWb3-136" target="ms__zVoi5oWq5A_VaWb3-138">
          <mxGeometry relative="1" as="geometry">
            <mxPoint x="467.17999999999995" y="1749.09" as="sourcePoint" />
            <mxPoint x="262.18" y="1749.09" as="targetPoint" />
          </mxGeometry>
        </mxCell>
        <mxCell id="ms__zVoi5oWq5A_VaWb3-143" value="" style="edgeStyle=orthogonalEdgeStyle;rounded=0;orthogonalLoop=1;jettySize=auto;html=1;exitX=0.5;exitY=1;exitDx=0;exitDy=0;entryX=1;entryY=0.5;entryDx=0;entryDy=0;exitPerimeter=0;" edge="1" parent="1" source="ms__zVoi5oWq5A_VaWb3-138" target="ms__zVoi5oWq5A_VaWb3-139">
          <mxGeometry relative="1" as="geometry">
            <mxPoint x="284.18" y="1770" as="sourcePoint" />
            <mxPoint x="479.17999999999995" y="1770" as="targetPoint" />
          </mxGeometry>
        </mxCell>
        <mxCell id="ms__zVoi5oWq5A_VaWb3-144" value="[Invalid document]&lt;span style=&quot;color: rgba(0, 0, 0, 0); font-family: monospace; font-size: 0px; text-align: start; background-color: rgb(251, 251, 251);&quot;&gt;%3CmxGraphModel%3E%3Croot%3E%3CmxCell%20id%3D%220%22%2F%3E%3CmxCell%20id%3D%221%22%20parent%3D%220%22%2F%3E%3CmxCell%20id%3D%222%22%20value%3D%22%22%20style%3D%22edgeStyle%3DorthogonalEdgeStyle%3Brounded%3D0%3BorthogonalLoop%3D1%3BjettySize%3Dauto%3Bhtml%3D1%3BexitX%3D1%3BexitY%3D0.5%3BexitDx%3D0%3BexitDy%3D0%3BentryX%3D0%3BentryY%3D0.5%3BentryDx%3D0%3BentryDy%3D0%3BentryPerimeter%3D0%3B%22%20edge%3D%221%22%20parent%3D%221%22%3E%3CmxGeometry%20relative%3D%221%22%20as%3D%22geometry%22%3E%3CmxPoint%20x%3D%22328%22%20y%3D%22-240%22%20as%3D%22sourcePoint%22%2F%3E%3CmxPoint%20x%3D%22523%22%20y%3D%22-240%22%20as%3D%22targetPoint%22%2F%3E%3C%2FmxGeometry%3E%3C%2FmxCell%3E%3C%2Froot%3E%3C%2FmxGraphModel%3E&lt;/span&gt;&lt;span style=&quot;color: rgba(0, 0, 0, 0); font-family: monospace; font-size: 0px; text-align: start; background-color: rgb(251, 251, 251);&quot;&gt;%3CmxGraphModel%3E%3Croot%3E%3CmxCell%20id%3D%220%22%2F%3E%3CmxCell%20id%3D%221%22%20parent%3D%220%22%2F%3E%3CmxCell%20id%3D%222%22%20value%3D%22%22%20style%3D%22edgeStyle%3DorthogonalEdgeStyle%3Brounded%3D0%3BorthogonalLoop%3D1%3BjettySize%3Dauto%3Bhtml%3D1%3BexitX%3D1%3BexitY%3D0.5%3BexitDx%3D0%3BexitDy%3D0%3BentryX%3D0%3BentryY%3D0.5%3BentryDx%3D0%3BentryDy%3D0%3BentryPerimeter%3D0%3B%22%20edge%3D%221%22%20parent%3D%221%22%3E%3CmxGeometry%20relative%3D%221%22%20as%3D%22geometry%22%3E%3CmxPoint%20x%3D%22328%22%20y%3D%22-240%22%20as%3D%22sourcePoint%22%2F%3E%3CmxPoint%20x%3D%22523%22%20y%3D%22-240%22%20as%3D%22targetPoint%22%2F%3E%3C%2FmxGeometry%3E%3C%2FmxCell%3E%3C%2Froot%3E%3C%2FmxGraphModel%3E&lt;/span&gt;" style="edgeLabel;html=1;align=center;verticalAlign=middle;resizable=0;points=[];" vertex="1" connectable="0" parent="ms__zVoi5oWq5A_VaWb3-143">
          <mxGeometry x="-0.0404" y="1" relative="1" as="geometry">
            <mxPoint x="36" y="-1" as="offset" />
          </mxGeometry>
        </mxCell>
        <mxCell id="ms__zVoi5oWq5A_VaWb3-145" value="" style="edgeStyle=orthogonalEdgeStyle;rounded=0;orthogonalLoop=1;jettySize=auto;html=1;exitX=1;exitY=0.5;exitDx=0;exitDy=0;exitPerimeter=0;" edge="1" parent="1" source="ms__zVoi5oWq5A_VaWb3-138">
          <mxGeometry relative="1" as="geometry">
            <mxPoint x="522.18" y="1730" as="sourcePoint" />
            <mxPoint x="605.38" y="1770" as="targetPoint" />
          </mxGeometry>
        </mxCell>
        <mxCell id="ms__zVoi5oWq5A_VaWb3-146" value="[Valid document]" style="edgeLabel;html=1;align=center;verticalAlign=middle;resizable=0;points=[];" vertex="1" connectable="0" parent="ms__zVoi5oWq5A_VaWb3-145">
          <mxGeometry x="-0.583" y="-5" relative="1" as="geometry">
            <mxPoint x="5" y="25" as="offset" />
          </mxGeometry>
        </mxCell>
        <mxCell id="ms__zVoi5oWq5A_VaWb3-148" value="" style="rounded=0;whiteSpace=wrap;html=1;fillColor=none;" vertex="1" parent="1">
          <mxGeometry x="110" y="1280" width="638.38" height="720" as="geometry" />
        </mxCell>
        <mxCell id="ms__zVoi5oWq5A_VaWb3-149" value="" style="endArrow=none;html=1;rounded=0;" edge="1" parent="1">
          <mxGeometry width="50" height="50" relative="1" as="geometry">
            <mxPoint x="378.38" y="2000" as="sourcePoint" />
            <mxPoint x="378.38" y="1280" as="targetPoint" />
          </mxGeometry>
        </mxCell>
        <mxCell id="ms__zVoi5oWq5A_VaWb3-150" value="&lt;span style=&quot;font-size: 14px;&quot;&gt;Trainee&lt;/span&gt;" style="text;html=1;align=center;verticalAlign=middle;whiteSpace=wrap;rounded=0;" vertex="1" parent="1">
          <mxGeometry x="210.18" y="1290" width="60" height="30" as="geometry" />
        </mxCell>
        <mxCell id="ms__zVoi5oWq5A_VaWb3-151" value="&lt;span style=&quot;font-size: 14px;&quot;&gt;Server&lt;/span&gt;" style="text;html=1;align=center;verticalAlign=middle;whiteSpace=wrap;rounded=0;" vertex="1" parent="1">
          <mxGeometry x="537.99" y="1290" width="60" height="30" as="geometry" />
        </mxCell>
        <mxCell id="ms__zVoi5oWq5A_VaWb3-154" value="" style="endArrow=none;html=1;rounded=0;entryX=1;entryY=0.069;entryDx=0;entryDy=0;entryPerimeter=0;" edge="1" parent="1" target="ms__zVoi5oWq5A_VaWb3-148">
          <mxGeometry width="50" height="50" relative="1" as="geometry">
            <mxPoint x="108.38" y="1330" as="sourcePoint" />
            <mxPoint x="708.38" y="1329" as="targetPoint" />
          </mxGeometry>
        </mxCell>
        <mxCell id="ms__zVoi5oWq5A_VaWb3-155" value="" style="ellipse;html=1;shape=startState;fillColor=#000000;strokeColor=#000000;" vertex="1" parent="1">
          <mxGeometry x="194.79000000000005" y="4665" width="30" height="30" as="geometry" />
        </mxCell>
        <mxCell id="ms__zVoi5oWq5A_VaWb3-156" value="" style="edgeStyle=orthogonalEdgeStyle;html=1;verticalAlign=bottom;endArrow=open;endSize=8;strokeColor=#000000;rounded=0;entryX=0.5;entryY=0;entryDx=0;entryDy=0;" edge="1" parent="1" source="ms__zVoi5oWq5A_VaWb3-155" target="ms__zVoi5oWq5A_VaWb3-158">
          <mxGeometry relative="1" as="geometry">
            <mxPoint x="209.79000000000005" y="4735" as="targetPoint" />
          </mxGeometry>
        </mxCell>
        <mxCell id="ms__zVoi5oWq5A_VaWb3-157" value="" style="edgeStyle=orthogonalEdgeStyle;rounded=0;orthogonalLoop=1;jettySize=auto;html=1;exitX=0.5;exitY=1;exitDx=0;exitDy=0;entryX=0.5;entryY=0;entryDx=0;entryDy=0;" edge="1" parent="1" source="ms__zVoi5oWq5A_VaWb3-158" target="ms__zVoi5oWq5A_VaWb3-159">
          <mxGeometry relative="1" as="geometry">
            <mxPoint x="216.79000000000005" y="4945" as="sourcePoint" />
            <mxPoint x="209.79000000000005" y="4855" as="targetPoint" />
          </mxGeometry>
        </mxCell>
        <mxCell id="ms__zVoi5oWq5A_VaWb3-158" value="&lt;font style=&quot;font-size: 14px;&quot;&gt;Open OJT module page&lt;/font&gt;" style="rounded=1;whiteSpace=wrap;html=1;fillColor=none;" vertex="1" parent="1">
          <mxGeometry x="149.79000000000005" y="4735" width="120" height="60" as="geometry" />
        </mxCell>
        <mxCell id="ms__zVoi5oWq5A_VaWb3-159" value="&lt;p data-pm-slice=&quot;1 1 [&amp;quot;list&amp;quot;,{&amp;quot;spread&amp;quot;:false,&amp;quot;start&amp;quot;:919,&amp;quot;end&amp;quot;:1227},&amp;quot;regular_list_item&amp;quot;,{&amp;quot;start&amp;quot;:966,&amp;quot;end&amp;quot;:1227},&amp;quot;ordered_list&amp;quot;,{&amp;quot;spread&amp;quot;:false,&amp;quot;startingNumber&amp;quot;:1,&amp;quot;start&amp;quot;:981,&amp;quot;end&amp;quot;:1227},&amp;quot;regular_list_item&amp;quot;,{&amp;quot;start&amp;quot;:992,&amp;quot;end&amp;quot;:1026}]&quot;&gt;&lt;font style=&quot;font-size: 14px;&quot;&gt;Navigate to the Feedback section&lt;/font&gt;&lt;/p&gt;" style="rounded=1;whiteSpace=wrap;html=1;fillColor=none;" vertex="1" parent="1">
          <mxGeometry x="149.79000000000005" y="4835" width="120" height="60" as="geometry" />
        </mxCell>
        <mxCell id="ms__zVoi5oWq5A_VaWb3-160" value="&lt;p data-pm-slice=&quot;1 1 [&amp;quot;list&amp;quot;,{&amp;quot;spread&amp;quot;:false,&amp;quot;start&amp;quot;:919,&amp;quot;end&amp;quot;:1227},&amp;quot;regular_list_item&amp;quot;,{&amp;quot;start&amp;quot;:966,&amp;quot;end&amp;quot;:1227},&amp;quot;ordered_list&amp;quot;,{&amp;quot;spread&amp;quot;:false,&amp;quot;startingNumber&amp;quot;:1,&amp;quot;start&amp;quot;:981,&amp;quot;end&amp;quot;:1227},&amp;quot;regular_list_item&amp;quot;,{&amp;quot;start&amp;quot;:992,&amp;quot;end&amp;quot;:1026}]&quot;&gt;&lt;font style=&quot;font-size: 14px;&quot;&gt;Write feedback in details&amp;nbsp;&lt;/font&gt;&lt;/p&gt;" style="rounded=1;whiteSpace=wrap;html=1;fillColor=none;" vertex="1" parent="1">
          <mxGeometry x="149.79000000000005" y="4935" width="120" height="60" as="geometry" />
        </mxCell>
        <mxCell id="ms__zVoi5oWq5A_VaWb3-161" value="" style="edgeStyle=orthogonalEdgeStyle;rounded=0;orthogonalLoop=1;jettySize=auto;html=1;exitX=0.5;exitY=1;exitDx=0;exitDy=0;entryX=0.5;entryY=0;entryDx=0;entryDy=0;" edge="1" parent="1" source="ms__zVoi5oWq5A_VaWb3-159" target="ms__zVoi5oWq5A_VaWb3-160">
          <mxGeometry relative="1" as="geometry">
            <mxPoint x="219.79000000000005" y="4815" as="sourcePoint" />
            <mxPoint x="219.79000000000005" y="4865" as="targetPoint" />
          </mxGeometry>
        </mxCell>
        <mxCell id="ms__zVoi5oWq5A_VaWb3-162" value="" style="strokeWidth=2;html=1;shape=mxgraph.flowchart.decision;whiteSpace=wrap;fillColor=none;" vertex="1" parent="1">
          <mxGeometry x="416.85999999999984" y="4915" width="100" height="100" as="geometry" />
        </mxCell>
        <mxCell id="ms__zVoi5oWq5A_VaWb3-163" value="&lt;font style=&quot;font-size: 14px;&quot;&gt;Display error message&lt;/font&gt;" style="rounded=1;whiteSpace=wrap;html=1;fillColor=none;" vertex="1" parent="1">
          <mxGeometry x="149.79000000000005" y="5045" width="120" height="60" as="geometry" />
        </mxCell>
        <mxCell id="ms__zVoi5oWq5A_VaWb3-164" value="" style="ellipse;html=1;shape=endState;fillColor=#000000;strokeColor=#000000;" vertex="1" parent="1">
          <mxGeometry x="194.79000000000005" y="5145" width="30" height="30" as="geometry" />
        </mxCell>
        <mxCell id="ms__zVoi5oWq5A_VaWb3-165" value="" style="edgeStyle=orthogonalEdgeStyle;rounded=0;orthogonalLoop=1;jettySize=auto;html=1;exitX=0.5;exitY=1;exitDx=0;exitDy=0;" edge="1" parent="1" source="ms__zVoi5oWq5A_VaWb3-163">
          <mxGeometry relative="1" as="geometry">
            <mxPoint x="219.79000000000005" y="4965" as="sourcePoint" />
            <mxPoint x="209.79000000000005" y="5145" as="targetPoint" />
            <Array as="points">
              <mxPoint x="209.79000000000005" y="5145" />
              <mxPoint x="209.79000000000005" y="5145" />
            </Array>
          </mxGeometry>
        </mxCell>
        <mxCell id="ms__zVoi5oWq5A_VaWb3-166" value="" style="edgeStyle=orthogonalEdgeStyle;rounded=0;orthogonalLoop=1;jettySize=auto;html=1;exitX=1;exitY=0.5;exitDx=0;exitDy=0;entryX=0;entryY=0.5;entryDx=0;entryDy=0;entryPerimeter=0;" edge="1" parent="1" source="ms__zVoi5oWq5A_VaWb3-160" target="ms__zVoi5oWq5A_VaWb3-162">
          <mxGeometry relative="1" as="geometry">
            <mxPoint x="474.78999999999985" y="5074.09" as="sourcePoint" />
            <mxPoint x="269.7900000000001" y="5074.09" as="targetPoint" />
          </mxGeometry>
        </mxCell>
        <mxCell id="ms__zVoi5oWq5A_VaWb3-167" value="" style="edgeStyle=orthogonalEdgeStyle;rounded=0;orthogonalLoop=1;jettySize=auto;html=1;exitX=0.5;exitY=1;exitDx=0;exitDy=0;entryX=1;entryY=0.5;entryDx=0;entryDy=0;exitPerimeter=0;" edge="1" parent="1" source="ms__zVoi5oWq5A_VaWb3-162" target="ms__zVoi5oWq5A_VaWb3-163">
          <mxGeometry relative="1" as="geometry">
            <mxPoint x="291.7900000000001" y="5095" as="sourcePoint" />
            <mxPoint x="486.78999999999985" y="5095" as="targetPoint" />
          </mxGeometry>
        </mxCell>
        <mxCell id="ms__zVoi5oWq5A_VaWb3-168" value="[Invalid]&lt;span style=&quot;color: rgba(0, 0, 0, 0); font-family: monospace; font-size: 0px; text-align: start; background-color: rgb(251, 251, 251);&quot;&gt;%3CmxGraphModel%3E%3Croot%3E%3CmxCell%20id%3D%220%22%2F%3E%3CmxCell%20id%3D%221%22%20parent%3D%220%22%2F%3E%3CmxCell%20id%3D%222%22%20value%3D%22%22%20style%3D%22edgeStyle%3DorthogonalEdgeStyle%3Brounded%3D0%3BorthogonalLoop%3D1%3BjettySize%3Dauto%3Bhtml%3D1%3BexitX%3D1%3BexitY%3D0.5%3BexitDx%3D0%3BexitDy%3D0%3BentryX%3D0%3BentryY%3D0.5%3BentryDx%3D0%3BentryDy%3D0%3BentryPerimeter%3D0%3B%22%20edge%3D%221%22%20parent%3D%221%22%3E%3CmxGeometry%20relative%3D%221%22%20as%3D%22geometry%22%3E%3CmxPoint%20x%3D%22328%22%20y%3D%22-240%22%20as%3D%22sourcePoint%22%2F%3E%3CmxPoint%20x%3D%22523%22%20y%3D%22-240%22%20as%3D%22targetPoint%22%2F%3E%3C%2FmxGeometry%3E%3C%2FmxCell%3E%3C%2Froot%3E%3C%2FmxGraphModel%3E&lt;/span&gt;&lt;span style=&quot;color: rgba(0, 0, 0, 0); font-family: monospace; font-size: 0px; text-align: start; background-color: rgb(251, 251, 251);&quot;&gt;%3CmxGraphModel%3E%3Croot%3E%3CmxCell%20id%3D%220%22%2F%3E%3CmxCell%20id%3D%221%22%20parent%3D%220%22%2F%3E%3CmxCell%20id%3D%222%22%20value%3D%22%22%20style%3D%22edgeStyle%3DorthogonalEdgeStyle%3Brounded%3D0%3BorthogonalLoop%3D1%3BjettySize%3Dauto%3Bhtml%3D1%3BexitX%3D1%3BexitY%3D0.5%3BexitDx%3D0%3BexitDy%3D0%3BentryX%3D0%3BentryY%3D0.5%3BentryDx%3D0%3BentryDy%3D0%3BentryPerimeter%3D0%3B%22%20edge%3D%221%22%20parent%3D%221%22%3E%3CmxGeometry%20relative%3D%221%22%20as%3D%22geometry%22%3E%3CmxPoint%20x%3D%22328%22%20y%3D%22-240%22%20as%3D%22sourcePoint%22%2F%3E%3CmxPoint%20x%3D%22523%22%20y%3D%22-240%22%20as%3D%22targetPoint%22%2F%3E%3C%2FmxGeometry%3E%3C%2FmxCell%3E%3C%2Froot%3E%3C%2FmxGraphModel%3E&lt;/span&gt;" style="edgeLabel;html=1;align=center;verticalAlign=middle;resizable=0;points=[];" vertex="1" connectable="0" parent="ms__zVoi5oWq5A_VaWb3-167">
          <mxGeometry x="-0.0404" y="1" relative="1" as="geometry">
            <mxPoint x="36" y="-1" as="offset" />
          </mxGeometry>
        </mxCell>
        <mxCell id="ms__zVoi5oWq5A_VaWb3-169" value="" style="edgeStyle=orthogonalEdgeStyle;rounded=0;orthogonalLoop=1;jettySize=auto;html=1;exitX=1;exitY=0.5;exitDx=0;exitDy=0;exitPerimeter=0;entryX=0.5;entryY=0;entryDx=0;entryDy=0;" edge="1" parent="1" source="ms__zVoi5oWq5A_VaWb3-162">
          <mxGeometry relative="1" as="geometry">
            <mxPoint x="481.85999999999984" y="5055" as="sourcePoint" />
            <mxPoint x="565.0599999999998" y="5105" as="targetPoint" />
          </mxGeometry>
        </mxCell>
        <mxCell id="ms__zVoi5oWq5A_VaWb3-170" value="[Valid]" style="edgeLabel;html=1;align=center;verticalAlign=middle;resizable=0;points=[];" vertex="1" connectable="0" parent="ms__zVoi5oWq5A_VaWb3-169">
          <mxGeometry x="-0.583" y="-5" relative="1" as="geometry">
            <mxPoint x="5" y="25" as="offset" />
          </mxGeometry>
        </mxCell>
        <mxCell id="ms__zVoi5oWq5A_VaWb3-172" value="" style="endArrow=none;html=1;rounded=0;exitX=0.482;exitY=0.998;exitDx=0;exitDy=0;exitPerimeter=0;" edge="1" parent="1">
          <mxGeometry width="50" height="50" relative="1" as="geometry">
            <mxPoint x="360" y="5340" as="sourcePoint" />
            <mxPoint x="360" y="4600" as="targetPoint" />
          </mxGeometry>
        </mxCell>
        <mxCell id="ms__zVoi5oWq5A_VaWb3-173" value="&lt;span style=&quot;font-size: 14px;&quot;&gt;Trainer&lt;/span&gt;" style="text;html=1;align=center;verticalAlign=middle;whiteSpace=wrap;rounded=0;" vertex="1" parent="1">
          <mxGeometry x="217.79000000000005" y="4615" width="60" height="30" as="geometry" />
        </mxCell>
        <mxCell id="ms__zVoi5oWq5A_VaWb3-174" value="&lt;span style=&quot;font-size: 14px;&quot;&gt;Server&lt;/span&gt;" style="text;html=1;align=center;verticalAlign=middle;whiteSpace=wrap;rounded=0;" vertex="1" parent="1">
          <mxGeometry x="504.78999999999985" y="4615" width="60" height="30" as="geometry" />
        </mxCell>
        <mxCell id="ms__zVoi5oWq5A_VaWb3-177" value="" style="endArrow=none;html=1;rounded=0;" edge="1" parent="1">
          <mxGeometry width="50" height="50" relative="1" as="geometry">
            <mxPoint x="120" y="4650" as="sourcePoint" />
            <mxPoint x="720" y="4650" as="targetPoint" />
          </mxGeometry>
        </mxCell>
        <mxCell id="ms__zVoi5oWq5A_VaWb3-178" value="" style="ellipse;html=1;shape=startState;fillColor=#000000;strokeColor=#000000;" vertex="1" parent="1">
          <mxGeometry x="229.60000000000002" y="3580" width="30" height="30" as="geometry" />
        </mxCell>
        <mxCell id="ms__zVoi5oWq5A_VaWb3-179" value="" style="edgeStyle=orthogonalEdgeStyle;html=1;verticalAlign=bottom;endArrow=open;endSize=8;strokeColor=#000000;rounded=0;entryX=0.5;entryY=0;entryDx=0;entryDy=0;" edge="1" parent="1" source="ms__zVoi5oWq5A_VaWb3-178" target="ms__zVoi5oWq5A_VaWb3-181">
          <mxGeometry relative="1" as="geometry">
            <mxPoint x="244.60000000000002" y="3650" as="targetPoint" />
          </mxGeometry>
        </mxCell>
        <mxCell id="ms__zVoi5oWq5A_VaWb3-180" value="" style="edgeStyle=orthogonalEdgeStyle;rounded=0;orthogonalLoop=1;jettySize=auto;html=1;exitX=0.5;exitY=1;exitDx=0;exitDy=0;entryX=0.5;entryY=0;entryDx=0;entryDy=0;" edge="1" parent="1" source="ms__zVoi5oWq5A_VaWb3-181" target="ms__zVoi5oWq5A_VaWb3-182">
          <mxGeometry relative="1" as="geometry">
            <mxPoint x="251.60000000000002" y="3860" as="sourcePoint" />
            <mxPoint x="244.60000000000002" y="3770" as="targetPoint" />
          </mxGeometry>
        </mxCell>
        <mxCell id="ms__zVoi5oWq5A_VaWb3-181" value="&lt;font style=&quot;font-size: 14px;&quot;&gt;Open OJT module page&lt;/font&gt;" style="rounded=1;whiteSpace=wrap;html=1;fillColor=none;" vertex="1" parent="1">
          <mxGeometry x="184.60000000000002" y="3650" width="120" height="60" as="geometry" />
        </mxCell>
        <mxCell id="ms__zVoi5oWq5A_VaWb3-182" value="&lt;p data-pm-slice=&quot;1 1 [&amp;quot;list&amp;quot;,{&amp;quot;spread&amp;quot;:false,&amp;quot;start&amp;quot;:919,&amp;quot;end&amp;quot;:1227},&amp;quot;regular_list_item&amp;quot;,{&amp;quot;start&amp;quot;:966,&amp;quot;end&amp;quot;:1227},&amp;quot;ordered_list&amp;quot;,{&amp;quot;spread&amp;quot;:false,&amp;quot;startingNumber&amp;quot;:1,&amp;quot;start&amp;quot;:981,&amp;quot;end&amp;quot;:1227},&amp;quot;regular_list_item&amp;quot;,{&amp;quot;start&amp;quot;:992,&amp;quot;end&amp;quot;:1026}]&quot;&gt;&lt;font style=&quot;font-size: 14px;&quot;&gt;Navigate to training log section&lt;/font&gt;&lt;/p&gt;" style="rounded=1;whiteSpace=wrap;html=1;fillColor=none;" vertex="1" parent="1">
          <mxGeometry x="184.60000000000002" y="3750" width="120" height="60" as="geometry" />
        </mxCell>
        <mxCell id="ms__zVoi5oWq5A_VaWb3-183" value="&lt;p data-pm-slice=&quot;1 1 [&amp;quot;list&amp;quot;,{&amp;quot;spread&amp;quot;:false,&amp;quot;start&amp;quot;:919,&amp;quot;end&amp;quot;:1227},&amp;quot;regular_list_item&amp;quot;,{&amp;quot;start&amp;quot;:966,&amp;quot;end&amp;quot;:1227},&amp;quot;ordered_list&amp;quot;,{&amp;quot;spread&amp;quot;:false,&amp;quot;startingNumber&amp;quot;:1,&amp;quot;start&amp;quot;:981,&amp;quot;end&amp;quot;:1227},&amp;quot;regular_list_item&amp;quot;,{&amp;quot;start&amp;quot;:992,&amp;quot;end&amp;quot;:1026}]&quot;&gt;&lt;font style=&quot;font-size: 14px;&quot;&gt;Select a log submission to review&lt;/font&gt;&lt;/p&gt;" style="rounded=1;whiteSpace=wrap;html=1;fillColor=none;" vertex="1" parent="1">
          <mxGeometry x="184.60000000000002" y="3850" width="120" height="60" as="geometry" />
        </mxCell>
        <mxCell id="ms__zVoi5oWq5A_VaWb3-184" value="" style="edgeStyle=orthogonalEdgeStyle;rounded=0;orthogonalLoop=1;jettySize=auto;html=1;exitX=0.5;exitY=1;exitDx=0;exitDy=0;entryX=0.5;entryY=0;entryDx=0;entryDy=0;" edge="1" parent="1" source="ms__zVoi5oWq5A_VaWb3-182" target="ms__zVoi5oWq5A_VaWb3-183">
          <mxGeometry relative="1" as="geometry">
            <mxPoint x="254.60000000000002" y="3730" as="sourcePoint" />
            <mxPoint x="254.60000000000002" y="3780" as="targetPoint" />
          </mxGeometry>
        </mxCell>
        <mxCell id="ms__zVoi5oWq5A_VaWb3-185" value="" style="strokeWidth=2;html=1;shape=mxgraph.flowchart.decision;whiteSpace=wrap;fillColor=none;" vertex="1" parent="1">
          <mxGeometry x="193.4" y="3950" width="100" height="100" as="geometry" />
        </mxCell>
        <mxCell id="ms__zVoi5oWq5A_VaWb3-186" value="&lt;font style=&quot;font-size: 14px;&quot;&gt;Display the review note for trainee&lt;/font&gt;" style="rounded=1;whiteSpace=wrap;html=1;fillColor=none;" vertex="1" parent="1">
          <mxGeometry x="567.62" y="4120" width="120" height="60" as="geometry" />
        </mxCell>
        <mxCell id="ms__zVoi5oWq5A_VaWb3-187" value="" style="ellipse;html=1;shape=endState;fillColor=#000000;strokeColor=#000000;" vertex="1" parent="1">
          <mxGeometry x="612.62" y="4210" width="30" height="30" as="geometry" />
        </mxCell>
        <mxCell id="ms__zVoi5oWq5A_VaWb3-189" value="" style="edgeStyle=orthogonalEdgeStyle;rounded=0;orthogonalLoop=1;jettySize=auto;html=1;exitX=0.47;exitY=1.002;exitDx=0;exitDy=0;entryX=0.5;entryY=0;entryDx=0;entryDy=0;entryPerimeter=0;exitPerimeter=0;" edge="1" parent="1" source="ms__zVoi5oWq5A_VaWb3-183" target="ms__zVoi5oWq5A_VaWb3-185">
          <mxGeometry relative="1" as="geometry">
            <mxPoint x="509.59999999999997" y="3989.09" as="sourcePoint" />
            <mxPoint x="304.6" y="3989.09" as="targetPoint" />
          </mxGeometry>
        </mxCell>
        <mxCell id="ms__zVoi5oWq5A_VaWb3-190" value="" style="edgeStyle=orthogonalEdgeStyle;rounded=0;orthogonalLoop=1;jettySize=auto;html=1;exitX=0.5;exitY=1;exitDx=0;exitDy=0;exitPerimeter=0;entryX=0;entryY=0.5;entryDx=0;entryDy=0;" edge="1" parent="1" source="ms__zVoi5oWq5A_VaWb3-185" target="ms__zVoi5oWq5A_VaWb3-186">
          <mxGeometry relative="1" as="geometry">
            <mxPoint x="326.6" y="4010" as="sourcePoint" />
            <mxPoint x="403" y="4150" as="targetPoint" />
          </mxGeometry>
        </mxCell>
        <mxCell id="ms__zVoi5oWq5A_VaWb3-191" value="[Submission valid]&lt;span style=&quot;color: rgba(0, 0, 0, 0); font-family: monospace; font-size: 0px; text-align: start; background-color: rgb(251, 251, 251);&quot;&gt;%3CmxGraphModel%3E%3Croot%3E%3CmxCell%20id%3D%220%22%2F%3E%3CmxCell%20id%3D%221%22%20parent%3D%220%22%2F%3E%3CmxCell%20id%3D%222%22%20value%3D%22%22%20style%3D%22edgeStyle%3DorthogonalEdgeStyle%3Brounded%3D0%3BorthogonalLoop%3D1%3BjettySize%3Dauto%3Bhtml%3D1%3BexitX%3D1%3BexitY%3D0.5%3BexitDx%3D0%3BexitDy%3D0%3BentryX%3D0%3BentryY%3D0.5%3BentryDx%3D0%3BentryDy%3D0%3BentryPerimeter%3D0%3B%22%20edge%3D%221%22%20parent%3D%221%22%3E%3CmxGeometry%20relative%3D%221%22%20as%3D%22geometry%22%3E%3CmxPoint%20x%3D%22328%22%20y%3D%22-240%22%20as%3D%22sourcePoint%22%2F%3E%3CmxPoint%20x%3D%22523%22%20y%3D%22-240%22%20as%3D%22targetPoint%22%2F%3E%3C%2FmxGeometry%3E%3C%2FmxCell%3E%3C%2Froot%3E%3C%2FmxGraphModel%3E&lt;/span&gt;&lt;span style=&quot;color: rgba(0, 0, 0, 0); font-family: monospace; font-size: 0px; text-align: start; background-color: rgb(251, 251, 251);&quot;&gt;%3CmxGraphModel%3E%3Croot%3E%3CmxCell%20id%3D%220%22%2F%3E%3CmxCell%20id%3D%221%22%20parent%3D%220%22%2F%3E%3CmxCell%20id%3D%222%22%20value%3D%22%22%20style%3D%22edgeStyle%3DorthogonalEdgeStyle%3Brounded%3D0%3BorthogonalLoop%3D1%3BjettySize%3Dauto%3Bhtml%3D1%3BexitX%3D1%3BexitY%3D0.5%3BexitDx%3D0%3BexitDy%3D0%3BentryX%3D0%3BentryY%3D0.5%3BentryDx%3D0%3BentryDy%3D0%3BentryPerimeter%3D0%3B%22%20edge%3D%221%22%20parent%3D%221%22%3E%3CmxGeometry%20relative%3D%221%22%20as%3D%22geometry%22%3E%3CmxPoint%20x%3D%22328%22%20y%3D%22-240%22%20as%3D%22sourcePoint%22%2F%3E%3CmxPoint%20x%3D%22523%22%20y%3D%22-240%22%20as%3D%22targetPoint%22%2F%3E%3C%2FmxGeometry%3E%3C%2FmxCell%3E%3C%2Froot%3E%3C%2FmxGraphModel%3E&lt;/span&gt;" style="edgeLabel;html=1;align=center;verticalAlign=middle;resizable=0;points=[];" vertex="1" connectable="0" parent="ms__zVoi5oWq5A_VaWb3-190">
          <mxGeometry x="-0.0404" y="1" relative="1" as="geometry">
            <mxPoint x="37" y="-9" as="offset" />
          </mxGeometry>
        </mxCell>
        <mxCell id="ms__zVoi5oWq5A_VaWb3-192" value="" style="edgeStyle=orthogonalEdgeStyle;rounded=0;orthogonalLoop=1;jettySize=auto;html=1;exitX=1;exitY=0.5;exitDx=0;exitDy=0;exitPerimeter=0;entryX=0;entryY=0.5;entryDx=0;entryDy=0;" edge="1" parent="1" source="ms__zVoi5oWq5A_VaWb3-185" target="ms__zVoi5oWq5A_VaWb3-321">
          <mxGeometry relative="1" as="geometry">
            <mxPoint x="564.5999999999999" y="3970" as="sourcePoint" />
            <mxPoint x="420" y="4000" as="targetPoint" />
          </mxGeometry>
        </mxCell>
        <mxCell id="ms__zVoi5oWq5A_VaWb3-193" value="[Submission invalid]" style="edgeLabel;html=1;align=center;verticalAlign=middle;resizable=0;points=[];" vertex="1" connectable="0" parent="ms__zVoi5oWq5A_VaWb3-192">
          <mxGeometry x="-0.583" y="-5" relative="1" as="geometry">
            <mxPoint x="27" y="-15" as="offset" />
          </mxGeometry>
        </mxCell>
        <mxCell id="ms__zVoi5oWq5A_VaWb3-196" value="" style="endArrow=none;html=1;rounded=0;" edge="1" parent="1">
          <mxGeometry width="50" height="50" relative="1" as="geometry">
            <mxPoint x="441.2" y="4260" as="sourcePoint" />
            <mxPoint x="441" y="3520" as="targetPoint" />
          </mxGeometry>
        </mxCell>
        <mxCell id="ms__zVoi5oWq5A_VaWb3-197" value="&lt;span style=&quot;font-size: 14px;&quot;&gt;Trainer&lt;/span&gt;" style="text;html=1;align=center;verticalAlign=middle;whiteSpace=wrap;rounded=0;" vertex="1" parent="1">
          <mxGeometry x="220.61" y="3530" width="60" height="30" as="geometry" />
        </mxCell>
        <mxCell id="ms__zVoi5oWq5A_VaWb3-199" value="" style="endArrow=classic;html=1;rounded=0;exitX=0.5;exitY=1;exitDx=0;exitDy=0;" edge="1" parent="1" source="ms__zVoi5oWq5A_VaWb3-321">
          <mxGeometry width="50" height="50" relative="1" as="geometry">
            <mxPoint x="624.66" y="4030" as="sourcePoint" />
            <mxPoint x="624.66" y="4070" as="targetPoint" />
            <Array as="points" />
          </mxGeometry>
        </mxCell>
        <mxCell id="ms__zVoi5oWq5A_VaWb3-200" value="" style="ellipse;html=1;shape=endState;fillColor=#000000;strokeColor=#000000;" vertex="1" parent="1">
          <mxGeometry x="609.79" y="4070" width="30" height="30" as="geometry" />
        </mxCell>
        <mxCell id="ms__zVoi5oWq5A_VaWb3-201" value="" style="endArrow=none;html=1;rounded=0;exitX=-0.003;exitY=0.069;exitDx=0;exitDy=0;exitPerimeter=0;" edge="1" parent="1">
          <mxGeometry width="50" height="50" relative="1" as="geometry">
            <mxPoint x="128.13099999999997" y="3567.6099999999997" as="sourcePoint" />
            <mxPoint x="730" y="3568" as="targetPoint" />
          </mxGeometry>
        </mxCell>
        <mxCell id="ms__zVoi5oWq5A_VaWb3-202" value="" style="rounded=0;whiteSpace=wrap;html=1;fillColor=none;" vertex="1" parent="1">
          <mxGeometry x="130" y="3520" width="600" height="740" as="geometry" />
        </mxCell>
        <mxCell id="ms__zVoi5oWq5A_VaWb3-204" value="" style="edgeStyle=orthogonalEdgeStyle;rounded=0;orthogonalLoop=1;jettySize=auto;html=1;exitX=0.5;exitY=1;exitDx=0;exitDy=0;" edge="1" parent="1" source="ms__zVoi5oWq5A_VaWb3-82">
          <mxGeometry relative="1" as="geometry">
            <mxPoint x="172.97" y="-460" as="sourcePoint" />
            <mxPoint x="172.98" y="-410" as="targetPoint" />
          </mxGeometry>
        </mxCell>
        <mxCell id="ms__zVoi5oWq5A_VaWb3-250" value="" style="ellipse;html=1;shape=endState;fillColor=#000000;strokeColor=#000000;" vertex="1" parent="1">
          <mxGeometry x="157.97" y="-410" width="30" height="30" as="geometry" />
        </mxCell>
        <mxCell id="ms__zVoi5oWq5A_VaWb3-251" value="" style="ellipse;html=1;shape=startState;fillColor=#000000;strokeColor=#000000;" vertex="1" parent="1">
          <mxGeometry x="481.59999999999997" y="-790" width="30" height="30" as="geometry" />
        </mxCell>
        <mxCell id="ms__zVoi5oWq5A_VaWb3-252" value="" style="edgeStyle=orthogonalEdgeStyle;html=1;verticalAlign=bottom;endArrow=open;endSize=8;strokeColor=#000000;rounded=0;entryX=0.5;entryY=0;entryDx=0;entryDy=0;" edge="1" parent="1" target="ms__zVoi5oWq5A_VaWb3-254">
          <mxGeometry relative="1" as="geometry">
            <mxPoint x="496.6" y="-730" as="targetPoint" />
            <mxPoint x="496.6" y="-760" as="sourcePoint" />
          </mxGeometry>
        </mxCell>
        <mxCell id="ms__zVoi5oWq5A_VaWb3-253" value="" style="edgeStyle=orthogonalEdgeStyle;rounded=0;orthogonalLoop=1;jettySize=auto;html=1;exitX=0.5;exitY=1;exitDx=0;exitDy=0;entryX=0.5;entryY=0;entryDx=0;entryDy=0;" edge="1" parent="1" source="ms__zVoi5oWq5A_VaWb3-254" target="ms__zVoi5oWq5A_VaWb3-255">
          <mxGeometry relative="1" as="geometry">
            <mxPoint x="503.6" y="-520" as="sourcePoint" />
            <mxPoint x="496.6" y="-610" as="targetPoint" />
          </mxGeometry>
        </mxCell>
        <mxCell id="ms__zVoi5oWq5A_VaWb3-254" value="&lt;font style=&quot;font-size: 14px;&quot;&gt;Open OJT module page&lt;/font&gt;" style="rounded=1;whiteSpace=wrap;html=1;fillColor=none;" vertex="1" parent="1">
          <mxGeometry x="436.59999999999997" y="-720" width="120" height="60" as="geometry" />
        </mxCell>
        <mxCell id="ms__zVoi5oWq5A_VaWb3-255" value="&lt;font style=&quot;font-size: 14px;&quot;&gt;Navigate to the tasks page&lt;/font&gt;" style="rounded=1;whiteSpace=wrap;html=1;fillColor=none;" vertex="1" parent="1">
          <mxGeometry x="436.59999999999997" y="-620" width="120" height="60" as="geometry" />
        </mxCell>
        <mxCell id="ms__zVoi5oWq5A_VaWb3-256" value="&lt;p data-pm-slice=&quot;1 1 [&amp;quot;list&amp;quot;,{&amp;quot;spread&amp;quot;:false,&amp;quot;start&amp;quot;:701,&amp;quot;end&amp;quot;:884},&amp;quot;regular_list_item&amp;quot;,{&amp;quot;start&amp;quot;:739,&amp;quot;end&amp;quot;:884},&amp;quot;ordered_list&amp;quot;,{&amp;quot;spread&amp;quot;:false,&amp;quot;startingNumber&amp;quot;:1,&amp;quot;start&amp;quot;:754,&amp;quot;end&amp;quot;:884},&amp;quot;regular_list_item&amp;quot;,{&amp;quot;start&amp;quot;:798,&amp;quot;end&amp;quot;:840}]&quot;&gt;&lt;span style=&quot;font-size: 14px;&quot;&gt;Track progress of completion of tasks&lt;/span&gt;&lt;/p&gt;" style="rounded=1;whiteSpace=wrap;html=1;fillColor=none;" vertex="1" parent="1">
          <mxGeometry x="436.59999999999997" y="-520" width="120" height="60" as="geometry" />
        </mxCell>
        <mxCell id="ms__zVoi5oWq5A_VaWb3-257" value="" style="edgeStyle=orthogonalEdgeStyle;rounded=0;orthogonalLoop=1;jettySize=auto;html=1;exitX=0.5;exitY=1;exitDx=0;exitDy=0;entryX=0.5;entryY=0;entryDx=0;entryDy=0;" edge="1" parent="1" source="ms__zVoi5oWq5A_VaWb3-255" target="ms__zVoi5oWq5A_VaWb3-256">
          <mxGeometry relative="1" as="geometry">
            <mxPoint x="476.59999999999997" y="-500" as="sourcePoint" />
            <mxPoint x="476.59999999999997" y="-550" as="targetPoint" />
          </mxGeometry>
        </mxCell>
        <mxCell id="ms__zVoi5oWq5A_VaWb3-258" value="&lt;font style=&quot;font-size: 14px;&quot;&gt;Trainee/ Trainer&lt;/font&gt;" style="text;html=1;align=center;verticalAlign=middle;whiteSpace=wrap;rounded=0;" vertex="1" parent="1">
          <mxGeometry x="448.82" y="-860" width="113" height="30" as="geometry" />
        </mxCell>
        <mxCell id="ms__zVoi5oWq5A_VaWb3-261" value="" style="rounded=0;whiteSpace=wrap;html=1;fillColor=none;" vertex="1" parent="1">
          <mxGeometry x="403.14" y="-870" width="397.94" height="510" as="geometry" />
        </mxCell>
        <mxCell id="ms__zVoi5oWq5A_VaWb3-262" value="" style="endArrow=none;html=1;rounded=0;" edge="1" parent="1">
          <mxGeometry width="50" height="50" relative="1" as="geometry">
            <mxPoint x="403.14" y="-819" as="sourcePoint" />
            <mxPoint x="803.14" y="-819" as="targetPoint" />
          </mxGeometry>
        </mxCell>
        <mxCell id="ms__zVoi5oWq5A_VaWb3-263" value="&lt;font style=&quot;font-size: 18px;&quot;&gt;Track Task Progress&lt;/font&gt;" style="text;html=1;align=center;verticalAlign=middle;whiteSpace=wrap;rounded=0;" vertex="1" parent="1">
          <mxGeometry x="430.39" y="-980" width="250" height="30" as="geometry" />
        </mxCell>
        <mxCell id="ms__zVoi5oWq5A_VaWb3-290" value="&lt;font style=&quot;font-size: 18px;&quot;&gt;&lt;span style=&quot;white-space: pre;&quot;&gt;&#x9;&lt;/span&gt;Assign&amp;nbsp;Tasks&lt;/font&gt;" style="text;html=1;align=center;verticalAlign=middle;whiteSpace=wrap;rounded=0;" vertex="1" parent="1">
          <mxGeometry x="94.71999999999994" y="2330" width="250" height="30" as="geometry" />
        </mxCell>
        <mxCell id="ms__zVoi5oWq5A_VaWb3-291" value="" style="ellipse;html=1;shape=startState;fillColor=#000000;strokeColor=#000000;" vertex="1" parent="1">
          <mxGeometry x="251.55" y="2520" width="30" height="30" as="geometry" />
        </mxCell>
        <mxCell id="ms__zVoi5oWq5A_VaWb3-292" value="" style="edgeStyle=orthogonalEdgeStyle;html=1;verticalAlign=bottom;endArrow=open;endSize=8;strokeColor=#000000;rounded=0;entryX=0.5;entryY=0;entryDx=0;entryDy=0;" edge="1" parent="1" target="ms__zVoi5oWq5A_VaWb3-294">
          <mxGeometry relative="1" as="geometry">
            <mxPoint x="266.55" y="2580" as="targetPoint" />
            <mxPoint x="266.55" y="2550" as="sourcePoint" />
          </mxGeometry>
        </mxCell>
        <mxCell id="ms__zVoi5oWq5A_VaWb3-293" value="" style="edgeStyle=orthogonalEdgeStyle;rounded=0;orthogonalLoop=1;jettySize=auto;html=1;exitX=0.5;exitY=1;exitDx=0;exitDy=0;entryX=0.5;entryY=0;entryDx=0;entryDy=0;" edge="1" parent="1" source="ms__zVoi5oWq5A_VaWb3-294" target="ms__zVoi5oWq5A_VaWb3-295">
          <mxGeometry relative="1" as="geometry">
            <mxPoint x="273.55" y="2790" as="sourcePoint" />
            <mxPoint x="266.55" y="2700" as="targetPoint" />
          </mxGeometry>
        </mxCell>
        <mxCell id="ms__zVoi5oWq5A_VaWb3-294" value="&lt;font style=&quot;font-size: 14px;&quot;&gt;Open OJT module page&lt;/font&gt;" style="rounded=1;whiteSpace=wrap;html=1;fillColor=none;" vertex="1" parent="1">
          <mxGeometry x="206.55" y="2590" width="120" height="60" as="geometry" />
        </mxCell>
        <mxCell id="ms__zVoi5oWq5A_VaWb3-295" value="&lt;font style=&quot;font-size: 14px;&quot;&gt;Navigate to the tasks page&lt;/font&gt;" style="rounded=1;whiteSpace=wrap;html=1;fillColor=none;" vertex="1" parent="1">
          <mxGeometry x="206.55" y="2690" width="120" height="60" as="geometry" />
        </mxCell>
        <mxCell id="ms__zVoi5oWq5A_VaWb3-296" value="&lt;p data-pm-slice=&quot;1 1 [&amp;quot;list&amp;quot;,{&amp;quot;spread&amp;quot;:false,&amp;quot;start&amp;quot;:701,&amp;quot;end&amp;quot;:884},&amp;quot;regular_list_item&amp;quot;,{&amp;quot;start&amp;quot;:739,&amp;quot;end&amp;quot;:884},&amp;quot;ordered_list&amp;quot;,{&amp;quot;spread&amp;quot;:false,&amp;quot;startingNumber&amp;quot;:1,&amp;quot;start&amp;quot;:754,&amp;quot;end&amp;quot;:884},&amp;quot;regular_list_item&amp;quot;,{&amp;quot;start&amp;quot;:798,&amp;quot;end&amp;quot;:840}]&quot;&gt;&lt;font style=&quot;font-size: 14px;&quot;&gt;Assign task with task details&lt;/font&gt;&lt;/p&gt;" style="rounded=1;whiteSpace=wrap;html=1;fillColor=none;" vertex="1" parent="1">
          <mxGeometry x="206.55" y="2790" width="120" height="60" as="geometry" />
        </mxCell>
        <mxCell id="ms__zVoi5oWq5A_VaWb3-297" value="" style="edgeStyle=orthogonalEdgeStyle;rounded=0;orthogonalLoop=1;jettySize=auto;html=1;exitX=0.5;exitY=1;exitDx=0;exitDy=0;entryX=0.5;entryY=0;entryDx=0;entryDy=0;" edge="1" parent="1" source="ms__zVoi5oWq5A_VaWb3-295" target="ms__zVoi5oWq5A_VaWb3-296">
          <mxGeometry relative="1" as="geometry">
            <mxPoint x="246.55" y="2810" as="sourcePoint" />
            <mxPoint x="246.55" y="2760" as="targetPoint" />
          </mxGeometry>
        </mxCell>
        <mxCell id="ms__zVoi5oWq5A_VaWb3-298" value="" style="rounded=0;whiteSpace=wrap;html=1;fillColor=none;" vertex="1" parent="1">
          <mxGeometry x="130" y="2440" width="650" height="740" as="geometry" />
        </mxCell>
        <mxCell id="ms__zVoi5oWq5A_VaWb3-299" value="" style="endArrow=none;html=1;rounded=0;entryX=1.003;entryY=0.069;entryDx=0;entryDy=0;entryPerimeter=0;exitX=0.001;exitY=0.069;exitDx=0;exitDy=0;exitPerimeter=0;" edge="1" parent="1" source="ms__zVoi5oWq5A_VaWb3-298" target="ms__zVoi5oWq5A_VaWb3-298">
          <mxGeometry width="50" height="50" relative="1" as="geometry">
            <mxPoint x="180" y="2490" as="sourcePoint" />
            <mxPoint x="412.17999999999995" y="2490" as="targetPoint" />
          </mxGeometry>
        </mxCell>
        <mxCell id="ms__zVoi5oWq5A_VaWb3-300" value="&lt;font style=&quot;font-size: 14px;&quot;&gt;Trainer&lt;/font&gt;" style="text;html=1;align=center;verticalAlign=middle;whiteSpace=wrap;rounded=0;" vertex="1" parent="1">
          <mxGeometry x="232.9099999999999" y="2450" width="60" height="30" as="geometry" />
        </mxCell>
        <mxCell id="ms__zVoi5oWq5A_VaWb3-317" value="" style="endArrow=classic;html=1;rounded=0;exitX=0.5;exitY=1;exitDx=0;exitDy=0;" edge="1" parent="1">
          <mxGeometry width="50" height="50" relative="1" as="geometry">
            <mxPoint x="627.5500000000001" y="4180" as="sourcePoint" />
            <mxPoint x="627.82" y="4210" as="targetPoint" />
          </mxGeometry>
        </mxCell>
        <mxCell id="ms__zVoi5oWq5A_VaWb3-319" value="&lt;font style=&quot;font-size: 18px;&quot;&gt;Provide Feedback&lt;/font&gt;" style="text;html=1;align=center;verticalAlign=middle;whiteSpace=wrap;rounded=0;" vertex="1" parent="1">
          <mxGeometry x="137.00000000000003" y="4530" width="250" height="30" as="geometry" />
        </mxCell>
        <mxCell id="ms__zVoi5oWq5A_VaWb3-321" value="&lt;span style=&quot;font-size: 14px;&quot;&gt;Display resubmission details for Trainee&lt;/span&gt;" style="rounded=1;whiteSpace=wrap;html=1;fillColor=none;" vertex="1" parent="1">
          <mxGeometry x="564.79" y="3970" width="120" height="60" as="geometry" />
        </mxCell>
        <mxCell id="ms__zVoi5oWq5A_VaWb3-333" value="&lt;span style=&quot;font-size: 14px;&quot;&gt;Server&lt;/span&gt;" style="text;html=1;align=center;verticalAlign=middle;whiteSpace=wrap;rounded=0;" vertex="1" parent="1">
          <mxGeometry x="537.62" y="3530" width="60" height="30" as="geometry" />
        </mxCell>
        <mxCell id="ms__zVoi5oWq5A_VaWb3-335" value="&lt;font style=&quot;font-size: 14px;&quot;&gt;Notify the Trainer&lt;/font&gt;" style="rounded=1;whiteSpace=wrap;html=1;fillColor=none;" vertex="1" parent="1">
          <mxGeometry x="550.3499999999999" y="800" width="120" height="60" as="geometry" />
        </mxCell>
        <mxCell id="ms__zVoi5oWq5A_VaWb3-336" value="" style="endArrow=classic;html=1;rounded=0;exitX=0.5;exitY=1;exitDx=0;exitDy=0;" edge="1" parent="1" source="ms__zVoi5oWq5A_VaWb3-335">
          <mxGeometry width="50" height="50" relative="1" as="geometry">
            <mxPoint x="572.5999999999999" y="780" as="sourcePoint" />
            <mxPoint x="610.3499999999999" y="910" as="targetPoint" />
          </mxGeometry>
        </mxCell>
        <mxCell id="ms__zVoi5oWq5A_VaWb3-337" value="" style="ellipse;html=1;shape=endState;fillColor=#000000;strokeColor=#000000;" vertex="1" parent="1">
          <mxGeometry x="595.3499999999999" y="910" width="30" height="30" as="geometry" />
        </mxCell>
        <mxCell id="ms__zVoi5oWq5A_VaWb3-339" value="" style="edgeStyle=orthogonalEdgeStyle;rounded=0;orthogonalLoop=1;jettySize=auto;html=1;exitX=1;exitY=0.5;exitDx=0;exitDy=0;exitPerimeter=0;" edge="1" parent="1" source="ms__zVoi5oWq5A_VaWb3-90" target="ms__zVoi5oWq5A_VaWb3-338">
          <mxGeometry relative="1" as="geometry">
            <mxPoint x="510.34999999999997" y="570" as="sourcePoint" />
            <mxPoint x="568.3499999999999" y="740" as="targetPoint" />
          </mxGeometry>
        </mxCell>
        <mxCell id="ms__zVoi5oWq5A_VaWb3-340" value="[Valid attempt]" style="edgeLabel;html=1;align=center;verticalAlign=middle;resizable=0;points=[];" vertex="1" connectable="0" parent="ms__zVoi5oWq5A_VaWb3-339">
          <mxGeometry x="-0.583" y="-5" relative="1" as="geometry">
            <mxPoint x="5" y="25" as="offset" />
          </mxGeometry>
        </mxCell>
        <mxCell id="ms__zVoi5oWq5A_VaWb3-338" value="" style="html=1;points=[];perimeter=orthogonalPerimeter;fillColor=strokeColor;direction=south;" vertex="1" parent="1">
          <mxGeometry x="508.09999999999997" y="740" width="80" height="5" as="geometry" />
        </mxCell>
        <mxCell id="ms__zVoi5oWq5A_VaWb3-341" value="" style="endArrow=classic;html=1;rounded=0;exitX=0.5;exitY=1;exitDx=0;exitDy=0;entryX=0.5;entryY=0;entryDx=0;entryDy=0;" edge="1" parent="1" target="ms__zVoi5oWq5A_VaWb3-101">
          <mxGeometry width="50" height="50" relative="1" as="geometry">
            <mxPoint x="532.6599999999999" y="745" as="sourcePoint" />
            <mxPoint x="532.8499999999999" y="795" as="targetPoint" />
            <Array as="points">
              <mxPoint x="532.3499999999999" y="770" />
              <mxPoint x="476.35" y="770" />
            </Array>
          </mxGeometry>
        </mxCell>
        <mxCell id="ms__zVoi5oWq5A_VaWb3-342" value="" style="endArrow=classic;html=1;rounded=0;exitX=0.5;exitY=1;exitDx=0;exitDy=0;entryX=0.5;entryY=0;entryDx=0;entryDy=0;" edge="1" parent="1" target="ms__zVoi5oWq5A_VaWb3-335">
          <mxGeometry width="50" height="50" relative="1" as="geometry">
            <mxPoint x="556.51" y="745" as="sourcePoint" />
            <mxPoint x="500.2" y="800" as="targetPoint" />
            <Array as="points">
              <mxPoint x="556.2" y="770" />
              <mxPoint x="610.3499999999999" y="770" />
            </Array>
          </mxGeometry>
        </mxCell>
        <mxCell id="ms__zVoi5oWq5A_VaWb3-353" value="&lt;span style=&quot;font-size: 14px;&quot;&gt;Add medical document to the system&lt;/span&gt;" style="rounded=1;whiteSpace=wrap;html=1;fillColor=none;" vertex="1" parent="1">
          <mxGeometry x="471.38" y="1830" width="120" height="60" as="geometry" />
        </mxCell>
        <mxCell id="ms__zVoi5oWq5A_VaWb3-354" value="" style="endArrow=classic;html=1;rounded=0;exitX=0.5;exitY=1;exitDx=0;exitDy=0;" edge="1" parent="1" source="ms__zVoi5oWq5A_VaWb3-353">
          <mxGeometry width="50" height="50" relative="1" as="geometry">
            <mxPoint x="331.38" y="1840" as="sourcePoint" />
            <mxPoint x="531.58" y="1940" as="targetPoint" />
          </mxGeometry>
        </mxCell>
        <mxCell id="ms__zVoi5oWq5A_VaWb3-355" value="" style="ellipse;html=1;shape=endState;fillColor=#000000;strokeColor=#000000;" vertex="1" parent="1">
          <mxGeometry x="516.38" y="1940" width="30" height="30" as="geometry" />
        </mxCell>
        <mxCell id="ms__zVoi5oWq5A_VaWb3-356" value="&lt;font style=&quot;font-size: 14px;&quot;&gt;Notify the Trainer&lt;/font&gt;" style="rounded=1;whiteSpace=wrap;html=1;fillColor=none;" vertex="1" parent="1">
          <mxGeometry x="605.3899999999999" y="1830" width="120" height="60" as="geometry" />
        </mxCell>
        <mxCell id="ms__zVoi5oWq5A_VaWb3-357" value="" style="endArrow=classic;html=1;rounded=0;exitX=0.5;exitY=1;exitDx=0;exitDy=0;" edge="1" parent="1" source="ms__zVoi5oWq5A_VaWb3-356">
          <mxGeometry width="50" height="50" relative="1" as="geometry">
            <mxPoint x="627.6399999999999" y="1810" as="sourcePoint" />
            <mxPoint x="665.3899999999999" y="1940" as="targetPoint" />
          </mxGeometry>
        </mxCell>
        <mxCell id="ms__zVoi5oWq5A_VaWb3-358" value="" style="ellipse;html=1;shape=endState;fillColor=#000000;strokeColor=#000000;" vertex="1" parent="1">
          <mxGeometry x="650.3899999999999" y="1940" width="30" height="30" as="geometry" />
        </mxCell>
        <mxCell id="ms__zVoi5oWq5A_VaWb3-359" value="" style="html=1;points=[];perimeter=orthogonalPerimeter;fillColor=strokeColor;direction=south;" vertex="1" parent="1">
          <mxGeometry x="563.1399999999999" y="1770" width="80" height="5" as="geometry" />
        </mxCell>
        <mxCell id="ms__zVoi5oWq5A_VaWb3-360" value="" style="endArrow=classic;html=1;rounded=0;exitX=0.5;exitY=1;exitDx=0;exitDy=0;entryX=0.5;entryY=0;entryDx=0;entryDy=0;" edge="1" parent="1" target="ms__zVoi5oWq5A_VaWb3-353">
          <mxGeometry width="50" height="50" relative="1" as="geometry">
            <mxPoint x="587.6999999999998" y="1775" as="sourcePoint" />
            <mxPoint x="587.8899999999999" y="1825" as="targetPoint" />
            <Array as="points">
              <mxPoint x="587.3899999999999" y="1800" />
              <mxPoint x="531.39" y="1800" />
            </Array>
          </mxGeometry>
        </mxCell>
        <mxCell id="ms__zVoi5oWq5A_VaWb3-361" value="" style="endArrow=classic;html=1;rounded=0;exitX=0.5;exitY=1;exitDx=0;exitDy=0;entryX=0.5;entryY=0;entryDx=0;entryDy=0;" edge="1" parent="1" target="ms__zVoi5oWq5A_VaWb3-356">
          <mxGeometry width="50" height="50" relative="1" as="geometry">
            <mxPoint x="611.55" y="1775" as="sourcePoint" />
            <mxPoint x="555.24" y="1830" as="targetPoint" />
            <Array as="points">
              <mxPoint x="611.24" y="1800" />
              <mxPoint x="665.3899999999999" y="1800" />
            </Array>
          </mxGeometry>
        </mxCell>
        <mxCell id="ms__zVoi5oWq5A_VaWb3-405" value="" style="strokeWidth=2;html=1;shape=mxgraph.flowchart.decision;whiteSpace=wrap;fillColor=none;" vertex="1" parent="1">
          <mxGeometry x="469.21000000000004" y="2770" width="100" height="100" as="geometry" />
        </mxCell>
        <mxCell id="ms__zVoi5oWq5A_VaWb3-406" value="&lt;font style=&quot;font-size: 14px;&quot;&gt;Display error message&lt;/font&gt;" style="rounded=1;whiteSpace=wrap;html=1;fillColor=none;" vertex="1" parent="1">
          <mxGeometry x="214.60000000000005" y="2950" width="120" height="60" as="geometry" />
        </mxCell>
        <mxCell id="ms__zVoi5oWq5A_VaWb3-407" value="" style="ellipse;html=1;shape=endState;fillColor=#000000;strokeColor=#000000;" vertex="1" parent="1">
          <mxGeometry x="259.6" y="3050" width="30" height="30" as="geometry" />
        </mxCell>
        <mxCell id="ms__zVoi5oWq5A_VaWb3-408" value="" style="edgeStyle=orthogonalEdgeStyle;rounded=0;orthogonalLoop=1;jettySize=auto;html=1;exitX=0.5;exitY=1;exitDx=0;exitDy=0;" edge="1" parent="1">
          <mxGeometry relative="1" as="geometry">
            <mxPoint x="274.6" y="3010" as="sourcePoint" />
            <mxPoint x="274.6" y="3050" as="targetPoint" />
            <Array as="points">
              <mxPoint x="274.6" y="3050" />
              <mxPoint x="274.6" y="3050" />
            </Array>
          </mxGeometry>
        </mxCell>
        <mxCell id="ms__zVoi5oWq5A_VaWb3-409" value="" style="edgeStyle=orthogonalEdgeStyle;rounded=0;orthogonalLoop=1;jettySize=auto;html=1;entryX=0;entryY=0.5;entryDx=0;entryDy=0;entryPerimeter=0;exitX=1;exitY=0.5;exitDx=0;exitDy=0;" edge="1" parent="1" source="ms__zVoi5oWq5A_VaWb3-296" target="ms__zVoi5oWq5A_VaWb3-405">
          <mxGeometry relative="1" as="geometry">
            <mxPoint x="340" y="2820" as="sourcePoint" />
            <mxPoint x="332.48" y="2929.09" as="targetPoint" />
          </mxGeometry>
        </mxCell>
        <mxCell id="ms__zVoi5oWq5A_VaWb3-410" value="" style="edgeStyle=orthogonalEdgeStyle;rounded=0;orthogonalLoop=1;jettySize=auto;html=1;exitX=0.5;exitY=1;exitDx=0;exitDy=0;entryX=1;entryY=0.5;entryDx=0;entryDy=0;exitPerimeter=0;" edge="1" parent="1" source="ms__zVoi5oWq5A_VaWb3-405" target="ms__zVoi5oWq5A_VaWb3-406">
          <mxGeometry relative="1" as="geometry">
            <mxPoint x="354.48" y="2950" as="sourcePoint" />
            <mxPoint x="549.48" y="2950" as="targetPoint" />
            <Array as="points">
              <mxPoint x="519" y="2910" />
              <mxPoint x="420" y="2910" />
              <mxPoint x="420" y="2980" />
            </Array>
          </mxGeometry>
        </mxCell>
        <mxCell id="ms__zVoi5oWq5A_VaWb3-411" value="[Invalid attempt]&lt;span style=&quot;color: rgba(0, 0, 0, 0); font-family: monospace; font-size: 0px; text-align: start; background-color: rgb(251, 251, 251);&quot;&gt;%3CmxGraphModel%3E%3Croot%3E%3CmxCell%20id%3D%220%22%2F%3E%3CmxCell%20id%3D%221%22%20parent%3D%220%22%2F%3E%3CmxCell%20id%3D%222%22%20value%3D%22%22%20style%3D%22edgeStyle%3DorthogonalEdgeStyle%3Brounded%3D0%3BorthogonalLoop%3D1%3BjettySize%3Dauto%3Bhtml%3D1%3BexitX%3D1%3BexitY%3D0.5%3BexitDx%3D0%3BexitDy%3D0%3BentryX%3D0%3BentryY%3D0.5%3BentryDx%3D0%3BentryDy%3D0%3BentryPerimeter%3D0%3B%22%20edge%3D%221%22%20parent%3D%221%22%3E%3CmxGeometry%20relative%3D%221%22%20as%3D%22geometry%22%3E%3CmxPoint%20x%3D%22328%22%20y%3D%22-240%22%20as%3D%22sourcePoint%22%2F%3E%3CmxPoint%20x%3D%22523%22%20y%3D%22-240%22%20as%3D%22targetPoint%22%2F%3E%3C%2FmxGeometry%3E%3C%2FmxCell%3E%3C%2Froot%3E%3C%2FmxGraphModel%3E&lt;/span&gt;&lt;span style=&quot;color: rgba(0, 0, 0, 0); font-family: monospace; font-size: 0px; text-align: start; background-color: rgb(251, 251, 251);&quot;&gt;%3CmxGraphModel%3E%3Croot%3E%3CmxCell%20id%3D%220%22%2F%3E%3CmxCell%20id%3D%221%22%20parent%3D%220%22%2F%3E%3CmxCell%20id%3D%222%22%20value%3D%22%22%20style%3D%22edgeStyle%3DorthogonalEdgeStyle%3Brounded%3D0%3BorthogonalLoop%3D1%3BjettySize%3Dauto%3Bhtml%3D1%3BexitX%3D1%3BexitY%3D0.5%3BexitDx%3D0%3BexitDy%3D0%3BentryX%3D0%3BentryY%3D0.5%3BentryDx%3D0%3BentryDy%3D0%3BentryPerimeter%3D0%3B%22%20edge%3D%221%22%20parent%3D%221%22%3E%3CmxGeometry%20relative%3D%221%22%20as%3D%22geometry%22%3E%3CmxPoint%20x%3D%22328%22%20y%3D%22-240%22%20as%3D%22sourcePoint%22%2F%3E%3CmxPoint%20x%3D%22523%22%20y%3D%22-240%22%20as%3D%22targetPoint%22%2F%3E%3C%2FmxGeometry%3E%3C%2FmxCell%3E%3C%2Froot%3E%3C%2FmxGraphModel%3E&lt;/span&gt;" style="edgeLabel;html=1;align=center;verticalAlign=middle;resizable=0;points=[];" vertex="1" connectable="0" parent="ms__zVoi5oWq5A_VaWb3-410">
          <mxGeometry x="-0.0404" y="1" relative="1" as="geometry">
            <mxPoint x="52" y="-12" as="offset" />
          </mxGeometry>
        </mxCell>
        <mxCell id="ms__zVoi5oWq5A_VaWb3-412" value="" style="edgeStyle=orthogonalEdgeStyle;rounded=0;orthogonalLoop=1;jettySize=auto;html=1;exitX=1;exitY=0.5;exitDx=0;exitDy=0;exitPerimeter=0;entryX=-0.128;entryY=0.476;entryDx=0;entryDy=0;entryPerimeter=0;" edge="1" parent="1" source="ms__zVoi5oWq5A_VaWb3-405" target="ms__zVoi5oWq5A_VaWb3-420">
          <mxGeometry relative="1" as="geometry">
            <mxPoint x="534.21" y="2910" as="sourcePoint" />
            <mxPoint x="617.4100000000001" y="2950" as="targetPoint" />
          </mxGeometry>
        </mxCell>
        <mxCell id="ms__zVoi5oWq5A_VaWb3-413" value="[Valid attempt]" style="edgeLabel;html=1;align=center;verticalAlign=middle;resizable=0;points=[];" vertex="1" connectable="0" parent="ms__zVoi5oWq5A_VaWb3-412">
          <mxGeometry x="-0.583" y="-5" relative="1" as="geometry">
            <mxPoint x="5" y="25" as="offset" />
          </mxGeometry>
        </mxCell>
        <mxCell id="ms__zVoi5oWq5A_VaWb3-414" value="&lt;span style=&quot;font-size: 14px;&quot;&gt;Add task to the course page&lt;/span&gt;" style="rounded=1;whiteSpace=wrap;html=1;fillColor=none;" vertex="1" parent="1">
          <mxGeometry x="493.00000000000006" y="3010" width="120" height="60" as="geometry" />
        </mxCell>
        <mxCell id="ms__zVoi5oWq5A_VaWb3-415" value="" style="endArrow=classic;html=1;rounded=0;exitX=0.5;exitY=1;exitDx=0;exitDy=0;" edge="1" parent="1" source="ms__zVoi5oWq5A_VaWb3-414">
          <mxGeometry width="50" height="50" relative="1" as="geometry">
            <mxPoint x="353" y="3020" as="sourcePoint" />
            <mxPoint x="553.2000000000002" y="3120" as="targetPoint" />
          </mxGeometry>
        </mxCell>
        <mxCell id="ms__zVoi5oWq5A_VaWb3-416" value="" style="ellipse;html=1;shape=endState;fillColor=#000000;strokeColor=#000000;" vertex="1" parent="1">
          <mxGeometry x="538.0000000000001" y="3120" width="30" height="30" as="geometry" />
        </mxCell>
        <mxCell id="ms__zVoi5oWq5A_VaWb3-417" value="&lt;font style=&quot;font-size: 14px;&quot;&gt;Notify the Trainee&lt;/font&gt;" style="rounded=1;whiteSpace=wrap;html=1;fillColor=none;" vertex="1" parent="1">
          <mxGeometry x="627.01" y="3010" width="120" height="60" as="geometry" />
        </mxCell>
        <mxCell id="ms__zVoi5oWq5A_VaWb3-418" value="" style="endArrow=classic;html=1;rounded=0;exitX=0.5;exitY=1;exitDx=0;exitDy=0;" edge="1" parent="1" source="ms__zVoi5oWq5A_VaWb3-417">
          <mxGeometry width="50" height="50" relative="1" as="geometry">
            <mxPoint x="649.26" y="2990" as="sourcePoint" />
            <mxPoint x="687.01" y="3120" as="targetPoint" />
          </mxGeometry>
        </mxCell>
        <mxCell id="ms__zVoi5oWq5A_VaWb3-419" value="" style="ellipse;html=1;shape=endState;fillColor=#000000;strokeColor=#000000;" vertex="1" parent="1">
          <mxGeometry x="672.01" y="3120" width="30" height="30" as="geometry" />
        </mxCell>
        <mxCell id="ms__zVoi5oWq5A_VaWb3-420" value="" style="html=1;points=[];perimeter=orthogonalPerimeter;fillColor=strokeColor;direction=south;" vertex="1" parent="1">
          <mxGeometry x="584.76" y="2950" width="80" height="5" as="geometry" />
        </mxCell>
        <mxCell id="ms__zVoi5oWq5A_VaWb3-421" value="" style="endArrow=classic;html=1;rounded=0;exitX=0.5;exitY=1;exitDx=0;exitDy=0;entryX=0.5;entryY=0;entryDx=0;entryDy=0;" edge="1" parent="1" target="ms__zVoi5oWq5A_VaWb3-414">
          <mxGeometry width="50" height="50" relative="1" as="geometry">
            <mxPoint x="609.3199999999999" y="2955" as="sourcePoint" />
            <mxPoint x="609.51" y="3005" as="targetPoint" />
            <Array as="points">
              <mxPoint x="609.01" y="2980" />
              <mxPoint x="553.0100000000001" y="2980" />
            </Array>
          </mxGeometry>
        </mxCell>
        <mxCell id="ms__zVoi5oWq5A_VaWb3-422" value="" style="endArrow=classic;html=1;rounded=0;exitX=0.5;exitY=1;exitDx=0;exitDy=0;entryX=0.5;entryY=0;entryDx=0;entryDy=0;" edge="1" parent="1" target="ms__zVoi5oWq5A_VaWb3-417">
          <mxGeometry width="50" height="50" relative="1" as="geometry">
            <mxPoint x="633.1700000000001" y="2955" as="sourcePoint" />
            <mxPoint x="576.8600000000001" y="3010" as="targetPoint" />
            <Array as="points">
              <mxPoint x="632.8600000000001" y="2980" />
              <mxPoint x="687.01" y="2980" />
            </Array>
          </mxGeometry>
        </mxCell>
        <mxCell id="ms__zVoi5oWq5A_VaWb3-424" value="" style="endArrow=none;html=1;rounded=0;exitX=0.415;exitY=0.995;exitDx=0;exitDy=0;exitPerimeter=0;" edge="1" parent="1" source="ms__zVoi5oWq5A_VaWb3-298">
          <mxGeometry width="50" height="50" relative="1" as="geometry">
            <mxPoint x="400" y="3160" as="sourcePoint" />
            <mxPoint x="400" y="2440" as="targetPoint" />
          </mxGeometry>
        </mxCell>
        <mxCell id="ms__zVoi5oWq5A_VaWb3-425" value="&lt;font style=&quot;font-size: 14px;&quot;&gt;Server&lt;/font&gt;" style="text;html=1;align=center;verticalAlign=middle;whiteSpace=wrap;rounded=0;" vertex="1" parent="1">
          <mxGeometry x="557.3499999999999" y="2450" width="60" height="30" as="geometry" />
        </mxCell>
        <mxCell id="ms__zVoi5oWq5A_VaWb3-428" value="&lt;span style=&quot;font-size: 14px;&quot;&gt;Add feedback to the course page&lt;/span&gt;" style="rounded=1;whiteSpace=wrap;html=1;fillColor=none;" vertex="1" parent="1">
          <mxGeometry x="435.41" y="5165" width="120" height="60" as="geometry" />
        </mxCell>
        <mxCell id="ms__zVoi5oWq5A_VaWb3-429" value="" style="endArrow=classic;html=1;rounded=0;exitX=0.5;exitY=1;exitDx=0;exitDy=0;" edge="1" parent="1" source="ms__zVoi5oWq5A_VaWb3-428">
          <mxGeometry width="50" height="50" relative="1" as="geometry">
            <mxPoint x="295.41" y="5175" as="sourcePoint" />
            <mxPoint x="495.6100000000002" y="5275" as="targetPoint" />
          </mxGeometry>
        </mxCell>
        <mxCell id="ms__zVoi5oWq5A_VaWb3-430" value="" style="ellipse;html=1;shape=endState;fillColor=#000000;strokeColor=#000000;" vertex="1" parent="1">
          <mxGeometry x="480.41000000000014" y="5275" width="30" height="30" as="geometry" />
        </mxCell>
        <mxCell id="ms__zVoi5oWq5A_VaWb3-431" value="&lt;font style=&quot;font-size: 14px;&quot;&gt;Notify the Trainee&lt;/font&gt;" style="rounded=1;whiteSpace=wrap;html=1;fillColor=none;" vertex="1" parent="1">
          <mxGeometry x="569.4200000000001" y="5165" width="120" height="60" as="geometry" />
        </mxCell>
        <mxCell id="ms__zVoi5oWq5A_VaWb3-432" value="" style="endArrow=classic;html=1;rounded=0;exitX=0.5;exitY=1;exitDx=0;exitDy=0;" edge="1" parent="1" source="ms__zVoi5oWq5A_VaWb3-431">
          <mxGeometry width="50" height="50" relative="1" as="geometry">
            <mxPoint x="591.6700000000001" y="5145" as="sourcePoint" />
            <mxPoint x="629.4200000000001" y="5275" as="targetPoint" />
          </mxGeometry>
        </mxCell>
        <mxCell id="ms__zVoi5oWq5A_VaWb3-433" value="" style="ellipse;html=1;shape=endState;fillColor=#000000;strokeColor=#000000;" vertex="1" parent="1">
          <mxGeometry x="614.4200000000001" y="5275" width="30" height="30" as="geometry" />
        </mxCell>
        <mxCell id="ms__zVoi5oWq5A_VaWb3-434" value="" style="html=1;points=[];perimeter=orthogonalPerimeter;fillColor=strokeColor;direction=south;" vertex="1" parent="1">
          <mxGeometry x="527.1700000000001" y="5105" width="80" height="5" as="geometry" />
        </mxCell>
        <mxCell id="ms__zVoi5oWq5A_VaWb3-435" value="" style="endArrow=classic;html=1;rounded=0;exitX=0.5;exitY=1;exitDx=0;exitDy=0;entryX=0.5;entryY=0;entryDx=0;entryDy=0;" edge="1" parent="1" target="ms__zVoi5oWq5A_VaWb3-428">
          <mxGeometry width="50" height="50" relative="1" as="geometry">
            <mxPoint x="551.73" y="5110" as="sourcePoint" />
            <mxPoint x="551.9200000000001" y="5160" as="targetPoint" />
            <Array as="points">
              <mxPoint x="551.4200000000001" y="5135" />
              <mxPoint x="495.42000000000013" y="5135" />
            </Array>
          </mxGeometry>
        </mxCell>
        <mxCell id="ms__zVoi5oWq5A_VaWb3-436" value="" style="endArrow=classic;html=1;rounded=0;exitX=0.5;exitY=1;exitDx=0;exitDy=0;entryX=0.5;entryY=0;entryDx=0;entryDy=0;" edge="1" parent="1" target="ms__zVoi5oWq5A_VaWb3-431">
          <mxGeometry width="50" height="50" relative="1" as="geometry">
            <mxPoint x="575.5800000000002" y="5110" as="sourcePoint" />
            <mxPoint x="519.2700000000002" y="5165" as="targetPoint" />
            <Array as="points">
              <mxPoint x="575.2700000000002" y="5135" />
              <mxPoint x="629.4200000000001" y="5135" />
            </Array>
          </mxGeometry>
        </mxCell>
        <mxCell id="ms__zVoi5oWq5A_VaWb3-437" value="" style="rounded=0;whiteSpace=wrap;html=1;fillColor=none;" vertex="1" parent="1">
          <mxGeometry x="120" y="4600" width="600" height="740" as="geometry" />
        </mxCell>
        <mxCell id="ms__zVoi5oWq5A_VaWb3-438" value="&lt;font style=&quot;font-size: 18px;&quot;&gt;Approve/Reject Medical Report&lt;/font&gt;" style="text;html=1;align=center;verticalAlign=middle;whiteSpace=wrap;rounded=0;" vertex="1" parent="1">
          <mxGeometry x="148.78" y="5620" width="291.22" height="30" as="geometry" />
        </mxCell>
        <mxCell id="ms__zVoi5oWq5A_VaWb3-439" value="" style="ellipse;html=1;shape=startState;fillColor=#000000;strokeColor=#000000;" vertex="1" parent="1">
          <mxGeometry x="243.65000000000003" y="5770" width="30" height="30" as="geometry" />
        </mxCell>
        <mxCell id="ms__zVoi5oWq5A_VaWb3-440" value="" style="edgeStyle=orthogonalEdgeStyle;html=1;verticalAlign=bottom;endArrow=open;endSize=8;strokeColor=#000000;rounded=0;entryX=0.5;entryY=0;entryDx=0;entryDy=0;" edge="1" parent="1" source="ms__zVoi5oWq5A_VaWb3-439" target="ms__zVoi5oWq5A_VaWb3-442">
          <mxGeometry relative="1" as="geometry">
            <mxPoint x="258.65000000000003" y="5840" as="targetPoint" />
          </mxGeometry>
        </mxCell>
        <mxCell id="ms__zVoi5oWq5A_VaWb3-441" value="" style="edgeStyle=orthogonalEdgeStyle;rounded=0;orthogonalLoop=1;jettySize=auto;html=1;exitX=0.5;exitY=1;exitDx=0;exitDy=0;entryX=0.5;entryY=0;entryDx=0;entryDy=0;" edge="1" parent="1" source="ms__zVoi5oWq5A_VaWb3-442" target="ms__zVoi5oWq5A_VaWb3-443">
          <mxGeometry relative="1" as="geometry">
            <mxPoint x="265.65000000000003" y="6050" as="sourcePoint" />
            <mxPoint x="258.65000000000003" y="5960" as="targetPoint" />
          </mxGeometry>
        </mxCell>
        <mxCell id="ms__zVoi5oWq5A_VaWb3-442" value="&lt;font style=&quot;font-size: 14px;&quot;&gt;Open OJT module page&lt;/font&gt;" style="rounded=1;whiteSpace=wrap;html=1;fillColor=none;" vertex="1" parent="1">
          <mxGeometry x="198.65000000000003" y="5840" width="120" height="60" as="geometry" />
        </mxCell>
        <mxCell id="ms__zVoi5oWq5A_VaWb3-443" value="&lt;p data-pm-slice=&quot;1 1 [&amp;quot;list&amp;quot;,{&amp;quot;spread&amp;quot;:false,&amp;quot;start&amp;quot;:919,&amp;quot;end&amp;quot;:1227},&amp;quot;regular_list_item&amp;quot;,{&amp;quot;start&amp;quot;:966,&amp;quot;end&amp;quot;:1227},&amp;quot;ordered_list&amp;quot;,{&amp;quot;spread&amp;quot;:false,&amp;quot;startingNumber&amp;quot;:1,&amp;quot;start&amp;quot;:981,&amp;quot;end&amp;quot;:1227},&amp;quot;regular_list_item&amp;quot;,{&amp;quot;start&amp;quot;:992,&amp;quot;end&amp;quot;:1026}]&quot;&gt;&lt;span style=&quot;font-size: 14px;&quot;&gt;Open the leave section&lt;/span&gt;&lt;/p&gt;" style="rounded=1;whiteSpace=wrap;html=1;fillColor=none;" vertex="1" parent="1">
          <mxGeometry x="198.65000000000003" y="5940" width="120" height="60" as="geometry" />
        </mxCell>
        <mxCell id="ms__zVoi5oWq5A_VaWb3-444" value="&lt;p data-pm-slice=&quot;1 1 [&amp;quot;list&amp;quot;,{&amp;quot;spread&amp;quot;:false,&amp;quot;start&amp;quot;:2614,&amp;quot;end&amp;quot;:2877},&amp;quot;regular_list_item&amp;quot;,{&amp;quot;start&amp;quot;:2644,&amp;quot;end&amp;quot;:2877},&amp;quot;ordered_list&amp;quot;,{&amp;quot;spread&amp;quot;:false,&amp;quot;startingNumber&amp;quot;:1,&amp;quot;start&amp;quot;:2659,&amp;quot;end&amp;quot;:2877},&amp;quot;regular_list_item&amp;quot;,{&amp;quot;start&amp;quot;:2708,&amp;quot;end&amp;quot;:2745}]&quot;&gt;&lt;font style=&quot;font-size: 14px;&quot;&gt;Review uploaded medical documents.&lt;/font&gt;&lt;/p&gt;" style="rounded=1;whiteSpace=wrap;html=1;fillColor=none;" vertex="1" parent="1">
          <mxGeometry x="198.65000000000003" y="6040" width="120" height="60" as="geometry" />
        </mxCell>
        <mxCell id="ms__zVoi5oWq5A_VaWb3-445" value="" style="edgeStyle=orthogonalEdgeStyle;rounded=0;orthogonalLoop=1;jettySize=auto;html=1;exitX=0.5;exitY=1;exitDx=0;exitDy=0;entryX=0.5;entryY=0;entryDx=0;entryDy=0;" edge="1" parent="1" source="ms__zVoi5oWq5A_VaWb3-443" target="ms__zVoi5oWq5A_VaWb3-444">
          <mxGeometry relative="1" as="geometry">
            <mxPoint x="268.65000000000003" y="5920" as="sourcePoint" />
            <mxPoint x="268.65000000000003" y="5970" as="targetPoint" />
          </mxGeometry>
        </mxCell>
        <mxCell id="ms__zVoi5oWq5A_VaWb3-446" value="" style="strokeWidth=2;html=1;shape=mxgraph.flowchart.decision;whiteSpace=wrap;fillColor=none;" vertex="1" parent="1">
          <mxGeometry x="207.45000000000002" y="6140" width="100" height="100" as="geometry" />
        </mxCell>
        <mxCell id="ms__zVoi5oWq5A_VaWb3-447" value="&lt;span style=&quot;font-size: 14px;&quot;&gt;Display the rejection note with reasons&lt;/span&gt;" style="rounded=1;whiteSpace=wrap;html=1;fillColor=none;" vertex="1" parent="1">
          <mxGeometry x="581.67" y="6310" width="120" height="60" as="geometry" />
        </mxCell>
        <mxCell id="ms__zVoi5oWq5A_VaWb3-448" value="" style="ellipse;html=1;shape=endState;fillColor=#000000;strokeColor=#000000;" vertex="1" parent="1">
          <mxGeometry x="626.67" y="6400" width="30" height="30" as="geometry" />
        </mxCell>
        <mxCell id="ms__zVoi5oWq5A_VaWb3-449" value="" style="edgeStyle=orthogonalEdgeStyle;rounded=0;orthogonalLoop=1;jettySize=auto;html=1;exitX=0.47;exitY=1.002;exitDx=0;exitDy=0;entryX=0.5;entryY=0;entryDx=0;entryDy=0;entryPerimeter=0;exitPerimeter=0;" edge="1" parent="1" source="ms__zVoi5oWq5A_VaWb3-444" target="ms__zVoi5oWq5A_VaWb3-446">
          <mxGeometry relative="1" as="geometry">
            <mxPoint x="523.6499999999999" y="6179.09" as="sourcePoint" />
            <mxPoint x="318.65000000000003" y="6179.09" as="targetPoint" />
          </mxGeometry>
        </mxCell>
        <mxCell id="ms__zVoi5oWq5A_VaWb3-450" value="" style="edgeStyle=orthogonalEdgeStyle;rounded=0;orthogonalLoop=1;jettySize=auto;html=1;exitX=0.5;exitY=1;exitDx=0;exitDy=0;exitPerimeter=0;entryX=0;entryY=0.5;entryDx=0;entryDy=0;" edge="1" parent="1" source="ms__zVoi5oWq5A_VaWb3-446" target="ms__zVoi5oWq5A_VaWb3-447">
          <mxGeometry relative="1" as="geometry">
            <mxPoint x="340.65000000000003" y="6200" as="sourcePoint" />
            <mxPoint x="417.05" y="6340" as="targetPoint" />
          </mxGeometry>
        </mxCell>
        <mxCell id="ms__zVoi5oWq5A_VaWb3-451" value="[Reject]" style="edgeLabel;html=1;align=center;verticalAlign=middle;resizable=0;points=[];" vertex="1" connectable="0" parent="ms__zVoi5oWq5A_VaWb3-450">
          <mxGeometry x="-0.0404" y="1" relative="1" as="geometry">
            <mxPoint x="-11" y="-9" as="offset" />
          </mxGeometry>
        </mxCell>
        <mxCell id="ms__zVoi5oWq5A_VaWb3-452" value="" style="edgeStyle=orthogonalEdgeStyle;rounded=0;orthogonalLoop=1;jettySize=auto;html=1;exitX=1;exitY=0.5;exitDx=0;exitDy=0;exitPerimeter=0;entryX=0;entryY=0.5;entryDx=0;entryDy=0;" edge="1" parent="1" source="ms__zVoi5oWq5A_VaWb3-446" target="ms__zVoi5oWq5A_VaWb3-461">
          <mxGeometry relative="1" as="geometry">
            <mxPoint x="578.6499999999999" y="6160" as="sourcePoint" />
            <mxPoint x="434.05" y="6190" as="targetPoint" />
          </mxGeometry>
        </mxCell>
        <mxCell id="ms__zVoi5oWq5A_VaWb3-453" value="[Approve]" style="edgeLabel;html=1;align=center;verticalAlign=middle;resizable=0;points=[];" vertex="1" connectable="0" parent="ms__zVoi5oWq5A_VaWb3-452">
          <mxGeometry x="-0.583" y="-5" relative="1" as="geometry">
            <mxPoint x="-2" y="-15" as="offset" />
          </mxGeometry>
        </mxCell>
        <mxCell id="ms__zVoi5oWq5A_VaWb3-454" value="" style="endArrow=none;html=1;rounded=0;" edge="1" parent="1">
          <mxGeometry width="50" height="50" relative="1" as="geometry">
            <mxPoint x="455.25" y="6450" as="sourcePoint" />
            <mxPoint x="455.05" y="5710" as="targetPoint" />
          </mxGeometry>
        </mxCell>
        <mxCell id="ms__zVoi5oWq5A_VaWb3-455" value="&lt;span style=&quot;font-size: 14px;&quot;&gt;Administrator&lt;/span&gt;" style="text;html=1;align=center;verticalAlign=middle;whiteSpace=wrap;rounded=0;" vertex="1" parent="1">
          <mxGeometry x="234.66000000000003" y="5720" width="60" height="30" as="geometry" />
        </mxCell>
        <mxCell id="ms__zVoi5oWq5A_VaWb3-456" value="" style="endArrow=classic;html=1;rounded=0;exitX=0.5;exitY=1;exitDx=0;exitDy=0;" edge="1" parent="1" source="ms__zVoi5oWq5A_VaWb3-461">
          <mxGeometry width="50" height="50" relative="1" as="geometry">
            <mxPoint x="638.7099999999999" y="6220" as="sourcePoint" />
            <mxPoint x="638.7099999999999" y="6260" as="targetPoint" />
            <Array as="points" />
          </mxGeometry>
        </mxCell>
        <mxCell id="ms__zVoi5oWq5A_VaWb3-457" value="" style="ellipse;html=1;shape=endState;fillColor=#000000;strokeColor=#000000;" vertex="1" parent="1">
          <mxGeometry x="623.8399999999999" y="6260" width="30" height="30" as="geometry" />
        </mxCell>
        <mxCell id="ms__zVoi5oWq5A_VaWb3-458" value="" style="endArrow=none;html=1;rounded=0;exitX=-0.003;exitY=0.069;exitDx=0;exitDy=0;exitPerimeter=0;" edge="1" parent="1">
          <mxGeometry width="50" height="50" relative="1" as="geometry">
            <mxPoint x="142.18099999999998" y="5757.61" as="sourcePoint" />
            <mxPoint x="744.05" y="5758" as="targetPoint" />
          </mxGeometry>
        </mxCell>
        <mxCell id="ms__zVoi5oWq5A_VaWb3-459" value="" style="rounded=0;whiteSpace=wrap;html=1;fillColor=none;" vertex="1" parent="1">
          <mxGeometry x="140" y="5710" width="604.05" height="740" as="geometry" />
        </mxCell>
        <mxCell id="ms__zVoi5oWq5A_VaWb3-460" value="" style="endArrow=classic;html=1;rounded=0;exitX=0.5;exitY=1;exitDx=0;exitDy=0;" edge="1" parent="1">
          <mxGeometry width="50" height="50" relative="1" as="geometry">
            <mxPoint x="641.6" y="6370" as="sourcePoint" />
            <mxPoint x="641.87" y="6400" as="targetPoint" />
          </mxGeometry>
        </mxCell>
        <mxCell id="ms__zVoi5oWq5A_VaWb3-461" value="&lt;span style=&quot;font-size: 14px;&quot;&gt;Notify Trainee that medical approved&lt;/span&gt;" style="rounded=1;whiteSpace=wrap;html=1;fillColor=none;" vertex="1" parent="1">
          <mxGeometry x="578.8399999999999" y="6160" width="120" height="60" as="geometry" />
        </mxCell>
        <mxCell id="ms__zVoi5oWq5A_VaWb3-462" value="&lt;span style=&quot;font-size: 14px;&quot;&gt;Server&lt;/span&gt;" style="text;html=1;align=center;verticalAlign=middle;whiteSpace=wrap;rounded=0;" vertex="1" parent="1">
          <mxGeometry x="551.67" y="5720" width="60" height="30" as="geometry" />
        </mxCell>
        <mxCell id="ms__zVoi5oWq5A_VaWb3-463" value="&lt;font style=&quot;font-size: 18px;&quot;&gt;Manage Trainees and Trainers&lt;/font&gt;" style="text;html=1;align=center;verticalAlign=middle;whiteSpace=wrap;rounded=0;" vertex="1" parent="1">
          <mxGeometry x="100.00000000000003" y="6660" width="250" height="30" as="geometry" />
        </mxCell>
        <mxCell id="ms__zVoi5oWq5A_VaWb3-464" value="" style="ellipse;html=1;shape=startState;fillColor=#000000;strokeColor=#000000;" vertex="1" parent="1">
          <mxGeometry x="283.72" y="6810" width="30" height="30" as="geometry" />
        </mxCell>
        <mxCell id="ms__zVoi5oWq5A_VaWb3-465" value="" style="edgeStyle=orthogonalEdgeStyle;html=1;verticalAlign=bottom;endArrow=open;endSize=8;strokeColor=#000000;rounded=0;entryX=0.5;entryY=0;entryDx=0;entryDy=0;" edge="1" parent="1" source="ms__zVoi5oWq5A_VaWb3-464" target="ms__zVoi5oWq5A_VaWb3-467">
          <mxGeometry relative="1" as="geometry">
            <mxPoint x="298.72" y="6880" as="targetPoint" />
          </mxGeometry>
        </mxCell>
        <mxCell id="ms__zVoi5oWq5A_VaWb3-466" value="" style="edgeStyle=orthogonalEdgeStyle;rounded=0;orthogonalLoop=1;jettySize=auto;html=1;exitX=0.5;exitY=1;exitDx=0;exitDy=0;entryX=0.5;entryY=0;entryDx=0;entryDy=0;" edge="1" parent="1" source="ms__zVoi5oWq5A_VaWb3-467" target="ms__zVoi5oWq5A_VaWb3-468">
          <mxGeometry relative="1" as="geometry">
            <mxPoint x="305.72" y="7090" as="sourcePoint" />
            <mxPoint x="298.72" y="7000" as="targetPoint" />
          </mxGeometry>
        </mxCell>
        <mxCell id="ms__zVoi5oWq5A_VaWb3-467" value="&lt;font style=&quot;font-size: 14px;&quot;&gt;Open OJT module page&lt;/font&gt;" style="rounded=1;whiteSpace=wrap;html=1;fillColor=none;" vertex="1" parent="1">
          <mxGeometry x="238.72000000000003" y="6880" width="120" height="60" as="geometry" />
        </mxCell>
        <mxCell id="ms__zVoi5oWq5A_VaWb3-468" value="&lt;p data-pm-slice=&quot;1 1 [&amp;quot;list&amp;quot;,{&amp;quot;spread&amp;quot;:false,&amp;quot;start&amp;quot;:919,&amp;quot;end&amp;quot;:1227},&amp;quot;regular_list_item&amp;quot;,{&amp;quot;start&amp;quot;:966,&amp;quot;end&amp;quot;:1227},&amp;quot;ordered_list&amp;quot;,{&amp;quot;spread&amp;quot;:false,&amp;quot;startingNumber&amp;quot;:1,&amp;quot;start&amp;quot;:981,&amp;quot;end&amp;quot;:1227},&amp;quot;regular_list_item&amp;quot;,{&amp;quot;start&amp;quot;:992,&amp;quot;end&amp;quot;:1026}]&quot;&gt;&lt;font style=&quot;font-size: 14px;&quot;&gt;Navigate to Management section&lt;/font&gt;&lt;/p&gt;" style="rounded=1;whiteSpace=wrap;html=1;fillColor=none;" vertex="1" parent="1">
          <mxGeometry x="238.72000000000003" y="6980" width="120" height="60" as="geometry" />
        </mxCell>
        <mxCell id="ms__zVoi5oWq5A_VaWb3-470" value="" style="edgeStyle=orthogonalEdgeStyle;rounded=0;orthogonalLoop=1;jettySize=auto;html=1;exitX=0.52;exitY=1.008;exitDx=0;exitDy=0;entryX=0.5;entryY=0;entryDx=0;entryDy=0;exitPerimeter=0;" edge="1" parent="1" source="ms__zVoi5oWq5A_VaWb3-468" target="ms__zVoi5oWq5A_VaWb3-497">
          <mxGeometry relative="1" as="geometry">
            <mxPoint x="308.72" y="6960" as="sourcePoint" />
            <mxPoint x="298.72" y="7080" as="targetPoint" />
            <Array as="points">
              <mxPoint x="302.25" y="7041" />
              <mxPoint x="302.25" y="7065" />
            </Array>
          </mxGeometry>
        </mxCell>
        <mxCell id="ms__zVoi5oWq5A_VaWb3-472" value="&lt;font style=&quot;font-size: 14px;&quot;&gt;Save changes&lt;/font&gt;" style="rounded=1;whiteSpace=wrap;html=1;fillColor=none;" vertex="1" parent="1">
          <mxGeometry x="537.04" y="7500" width="120" height="60" as="geometry" />
        </mxCell>
        <mxCell id="ms__zVoi5oWq5A_VaWb3-473" value="" style="ellipse;html=1;shape=endState;fillColor=#000000;strokeColor=#000000;" vertex="1" parent="1">
          <mxGeometry x="582.6" y="7600" width="30" height="30" as="geometry" />
        </mxCell>
        <mxCell id="ms__zVoi5oWq5A_VaWb3-479" value="" style="endArrow=none;html=1;rounded=0;" edge="1" parent="1">
          <mxGeometry width="50" height="50" relative="1" as="geometry">
            <mxPoint x="495.25" y="7650" as="sourcePoint" />
            <mxPoint x="495.12" y="6750" as="targetPoint" />
          </mxGeometry>
        </mxCell>
        <mxCell id="ms__zVoi5oWq5A_VaWb3-480" value="&lt;span style=&quot;font-size: 14px;&quot;&gt;Administrator&lt;/span&gt;" style="text;html=1;align=center;verticalAlign=middle;whiteSpace=wrap;rounded=0;" vertex="1" parent="1">
          <mxGeometry x="297.56" y="6760" width="60" height="30" as="geometry" />
        </mxCell>
        <mxCell id="ms__zVoi5oWq5A_VaWb3-483" value="" style="endArrow=none;html=1;rounded=0;" edge="1" parent="1">
          <mxGeometry width="50" height="50" relative="1" as="geometry">
            <mxPoint x="122.25" y="6798" as="sourcePoint" />
            <mxPoint x="722.25" y="6800" as="targetPoint" />
          </mxGeometry>
        </mxCell>
        <mxCell id="ms__zVoi5oWq5A_VaWb3-484" value="" style="rounded=0;whiteSpace=wrap;html=1;fillColor=none;" vertex="1" parent="1">
          <mxGeometry x="125.39" y="6750" width="600" height="900" as="geometry" />
        </mxCell>
        <mxCell id="ms__zVoi5oWq5A_VaWb3-485" value="" style="endArrow=classic;html=1;rounded=0;exitX=0.5;exitY=1;exitDx=0;exitDy=0;entryX=0.5;entryY=0;entryDx=0;entryDy=0;" edge="1" parent="1" source="ms__zVoi5oWq5A_VaWb3-472" target="ms__zVoi5oWq5A_VaWb3-473">
          <mxGeometry width="50" height="50" relative="1" as="geometry">
            <mxPoint x="698.19" y="7650" as="sourcePoint" />
            <mxPoint x="698.46" y="7680" as="targetPoint" />
          </mxGeometry>
        </mxCell>
        <mxCell id="ms__zVoi5oWq5A_VaWb3-487" value="&lt;span style=&quot;font-size: 14px;&quot;&gt;Server&lt;/span&gt;" style="text;html=1;align=center;verticalAlign=middle;whiteSpace=wrap;rounded=0;" vertex="1" parent="1">
          <mxGeometry x="583.92" y="6760" width="60" height="30" as="geometry" />
        </mxCell>
        <mxCell id="ms__zVoi5oWq5A_VaWb3-491" value="&lt;p data-pm-slice=&quot;1 1 [&amp;quot;list&amp;quot;,{&amp;quot;spread&amp;quot;:false,&amp;quot;start&amp;quot;:701,&amp;quot;end&amp;quot;:884},&amp;quot;regular_list_item&amp;quot;,{&amp;quot;start&amp;quot;:739,&amp;quot;end&amp;quot;:884},&amp;quot;ordered_list&amp;quot;,{&amp;quot;spread&amp;quot;:false,&amp;quot;startingNumber&amp;quot;:1,&amp;quot;start&amp;quot;:754,&amp;quot;end&amp;quot;:884},&amp;quot;regular_list_item&amp;quot;,{&amp;quot;start&amp;quot;:798,&amp;quot;end&amp;quot;:840}]&quot;&gt;&lt;span style=&quot;font-size: 14px;&quot;&gt;Save changes&lt;/span&gt;&lt;/p&gt;" style="rounded=1;whiteSpace=wrap;html=1;fillColor=none;" vertex="1" parent="1">
          <mxGeometry x="639.81" y="-520" width="120" height="60" as="geometry" />
        </mxCell>
        <mxCell id="ms__zVoi5oWq5A_VaWb3-492" value="" style="edgeStyle=orthogonalEdgeStyle;rounded=0;orthogonalLoop=1;jettySize=auto;html=1;exitX=0.5;exitY=1;exitDx=0;exitDy=0;" edge="1" parent="1">
          <mxGeometry relative="1" as="geometry">
            <mxPoint x="699.6899999999999" y="-460" as="sourcePoint" />
            <mxPoint x="700.16" y="-410" as="targetPoint" />
          </mxGeometry>
        </mxCell>
        <mxCell id="ms__zVoi5oWq5A_VaWb3-493" value="" style="ellipse;html=1;shape=endState;fillColor=#000000;strokeColor=#000000;" vertex="1" parent="1">
          <mxGeometry x="685.15" y="-410" width="30" height="30" as="geometry" />
        </mxCell>
        <mxCell id="ms__zVoi5oWq5A_VaWb3-494" value="" style="edgeStyle=orthogonalEdgeStyle;rounded=0;orthogonalLoop=1;jettySize=auto;html=1;exitX=1;exitY=0.5;exitDx=0;exitDy=0;entryX=0;entryY=0.5;entryDx=0;entryDy=0;" edge="1" parent="1" source="ms__zVoi5oWq5A_VaWb3-256" target="ms__zVoi5oWq5A_VaWb3-491">
          <mxGeometry relative="1" as="geometry">
            <mxPoint x="506.14" y="-550" as="sourcePoint" />
            <mxPoint x="506.14" y="-510" as="targetPoint" />
          </mxGeometry>
        </mxCell>
        <mxCell id="ms__zVoi5oWq5A_VaWb3-495" value="&lt;font style=&quot;font-size: 14px;&quot;&gt;Server&lt;/font&gt;" style="text;html=1;align=center;verticalAlign=middle;resizable=0;points=[];autosize=1;strokeColor=none;fillColor=none;" vertex="1" parent="1">
          <mxGeometry x="663.14" y="-862" width="60" height="30" as="geometry" />
        </mxCell>
        <mxCell id="ms__zVoi5oWq5A_VaWb3-496" value="" style="endArrow=none;html=1;rounded=0;" edge="1" parent="1">
          <mxGeometry width="50" height="50" relative="1" as="geometry">
            <mxPoint x="603.14" y="-870" as="sourcePoint" />
            <mxPoint x="603.14" y="-356.86279296875" as="targetPoint" />
          </mxGeometry>
        </mxCell>
        <mxCell id="ms__zVoi5oWq5A_VaWb3-498" style="edgeStyle=orthogonalEdgeStyle;rounded=0;orthogonalLoop=1;jettySize=auto;html=1;exitX=0;exitY=0.5;exitDx=0;exitDy=0;entryX=0.5;entryY=0;entryDx=0;entryDy=0;" edge="1" parent="1" source="ms__zVoi5oWq5A_VaWb3-497" target="ms__zVoi5oWq5A_VaWb3-501">
          <mxGeometry relative="1" as="geometry">
            <mxPoint x="182.25" y="7220" as="targetPoint" />
          </mxGeometry>
        </mxCell>
        <mxCell id="ms__zVoi5oWq5A_VaWb3-499" style="edgeStyle=orthogonalEdgeStyle;rounded=0;orthogonalLoop=1;jettySize=auto;html=1;exitX=0.5;exitY=1;exitDx=0;exitDy=0;entryX=0.5;entryY=0;entryDx=0;entryDy=0;" edge="1" parent="1" source="ms__zVoi5oWq5A_VaWb3-497" target="ms__zVoi5oWq5A_VaWb3-502">
          <mxGeometry relative="1" as="geometry">
            <mxPoint x="302.340909090909" y="7230" as="targetPoint" />
          </mxGeometry>
        </mxCell>
        <mxCell id="ms__zVoi5oWq5A_VaWb3-500" style="edgeStyle=orthogonalEdgeStyle;rounded=0;orthogonalLoop=1;jettySize=auto;html=1;exitX=1;exitY=0.5;exitDx=0;exitDy=0;entryX=0.5;entryY=0;entryDx=0;entryDy=0;" edge="1" parent="1" source="ms__zVoi5oWq5A_VaWb3-497" target="ms__zVoi5oWq5A_VaWb3-503">
          <mxGeometry relative="1" as="geometry">
            <mxPoint x="402.25" y="7210" as="targetPoint" />
          </mxGeometry>
        </mxCell>
        <mxCell id="ms__zVoi5oWq5A_VaWb3-497" value="" style="rhombus;fillColor=none;" vertex="1" parent="1">
          <mxGeometry x="252.43000000000004" y="7070" width="100" height="100" as="geometry" />
        </mxCell>
        <mxCell id="ms__zVoi5oWq5A_VaWb3-504" style="edgeStyle=orthogonalEdgeStyle;rounded=0;orthogonalLoop=1;jettySize=auto;html=1;exitX=0.5;exitY=1;exitDx=0;exitDy=0;entryX=0;entryY=0.5;entryDx=0;entryDy=0;" edge="1" parent="1" source="ms__zVoi5oWq5A_VaWb3-501" target="ms__zVoi5oWq5A_VaWb3-507">
          <mxGeometry relative="1" as="geometry">
            <mxPoint x="262.25" y="7590" as="targetPoint" />
          </mxGeometry>
        </mxCell>
        <mxCell id="ms__zVoi5oWq5A_VaWb3-501" value="&lt;p data-pm-slice=&quot;1 1 [&amp;quot;list&amp;quot;,{&amp;quot;spread&amp;quot;:false,&amp;quot;start&amp;quot;:919,&amp;quot;end&amp;quot;:1227},&amp;quot;regular_list_item&amp;quot;,{&amp;quot;start&amp;quot;:966,&amp;quot;end&amp;quot;:1227},&amp;quot;ordered_list&amp;quot;,{&amp;quot;spread&amp;quot;:false,&amp;quot;startingNumber&amp;quot;:1,&amp;quot;start&amp;quot;:981,&amp;quot;end&amp;quot;:1227},&amp;quot;regular_list_item&amp;quot;,{&amp;quot;start&amp;quot;:992,&amp;quot;end&amp;quot;:1026}]&quot;&gt;&lt;font style=&quot;font-size: 14px;&quot;&gt;Add/Remove Trainers&lt;/font&gt;&lt;/p&gt;" style="rounded=1;whiteSpace=wrap;html=1;fillColor=none;" vertex="1" parent="1">
          <mxGeometry x="148.8" y="7170" width="120" height="60" as="geometry" />
        </mxCell>
        <mxCell id="ms__zVoi5oWq5A_VaWb3-505" style="edgeStyle=orthogonalEdgeStyle;rounded=0;orthogonalLoop=1;jettySize=auto;html=1;exitX=0.5;exitY=1;exitDx=0;exitDy=0;entryX=0.5;entryY=0;entryDx=0;entryDy=0;" edge="1" parent="1" source="ms__zVoi5oWq5A_VaWb3-502" target="ms__zVoi5oWq5A_VaWb3-507">
          <mxGeometry relative="1" as="geometry">
            <mxPoint x="492.25" y="7500" as="targetPoint" />
          </mxGeometry>
        </mxCell>
        <mxCell id="ms__zVoi5oWq5A_VaWb3-502" value="&lt;p data-pm-slice=&quot;1 1 [&amp;quot;list&amp;quot;,{&amp;quot;spread&amp;quot;:false,&amp;quot;start&amp;quot;:919,&amp;quot;end&amp;quot;:1227},&amp;quot;regular_list_item&amp;quot;,{&amp;quot;start&amp;quot;:966,&amp;quot;end&amp;quot;:1227},&amp;quot;ordered_list&amp;quot;,{&amp;quot;spread&amp;quot;:false,&amp;quot;startingNumber&amp;quot;:1,&amp;quot;start&amp;quot;:981,&amp;quot;end&amp;quot;:1227},&amp;quot;regular_list_item&amp;quot;,{&amp;quot;start&amp;quot;:992,&amp;quot;end&amp;quot;:1026}]&quot;&gt;&lt;font style=&quot;font-size: 14px;&quot;&gt;Add/Remove Trainees&lt;/font&gt;&lt;/p&gt;" style="rounded=1;whiteSpace=wrap;html=1;fillColor=none;" vertex="1" parent="1">
          <mxGeometry x="242.43" y="7250" width="120" height="60" as="geometry" />
        </mxCell>
        <mxCell id="ms__zVoi5oWq5A_VaWb3-506" style="edgeStyle=orthogonalEdgeStyle;rounded=0;orthogonalLoop=1;jettySize=auto;html=1;exitX=0.5;exitY=1;exitDx=0;exitDy=0;entryX=1;entryY=0.5;entryDx=0;entryDy=0;" edge="1" parent="1" source="ms__zVoi5oWq5A_VaWb3-503" target="ms__zVoi5oWq5A_VaWb3-507">
          <mxGeometry relative="1" as="geometry">
            <mxPoint x="532.25" y="7460" as="targetPoint" />
          </mxGeometry>
        </mxCell>
        <mxCell id="ms__zVoi5oWq5A_VaWb3-503" value="&lt;p data-pm-slice=&quot;1 1 [&amp;quot;list&amp;quot;,{&amp;quot;spread&amp;quot;:false,&amp;quot;start&amp;quot;:919,&amp;quot;end&amp;quot;:1227},&amp;quot;regular_list_item&amp;quot;,{&amp;quot;start&amp;quot;:966,&amp;quot;end&amp;quot;:1227},&amp;quot;ordered_list&amp;quot;,{&amp;quot;spread&amp;quot;:false,&amp;quot;startingNumber&amp;quot;:1,&amp;quot;start&amp;quot;:981,&amp;quot;end&amp;quot;:1227},&amp;quot;regular_list_item&amp;quot;,{&amp;quot;start&amp;quot;:992,&amp;quot;end&amp;quot;:1026}]&quot;&gt;&lt;font style=&quot;font-size: 14px;&quot;&gt;Update Trainers/Trainees&lt;/font&gt;&lt;/p&gt;" style="rounded=1;whiteSpace=wrap;html=1;fillColor=none;" vertex="1" parent="1">
          <mxGeometry x="329.25" y="7170" width="120" height="60" as="geometry" />
        </mxCell>
        <mxCell id="ms__zVoi5oWq5A_VaWb3-508" style="edgeStyle=orthogonalEdgeStyle;rounded=0;orthogonalLoop=1;jettySize=auto;html=1;exitX=0.5;exitY=1;exitDx=0;exitDy=0;entryX=0.5;entryY=0;entryDx=0;entryDy=0;" edge="1" parent="1" source="ms__zVoi5oWq5A_VaWb3-507" target="ms__zVoi5oWq5A_VaWb3-472">
          <mxGeometry relative="1" as="geometry" />
        </mxCell>
        <mxCell id="ms__zVoi5oWq5A_VaWb3-507" value="" style="rhombus;fillColor=none;" vertex="1" parent="1">
          <mxGeometry x="547.04" y="7350" width="100" height="100" as="geometry" />
        </mxCell>
        <mxCell id="ms__zVoi5oWq5A_VaWb3-509" value="&lt;font style=&quot;font-size: 18px;&quot;&gt;Generate Report&lt;/font&gt;" style="text;html=1;align=center;verticalAlign=middle;whiteSpace=wrap;rounded=0;" vertex="1" parent="1">
          <mxGeometry x="105.00000000000001" y="7840" width="291.22" height="30" as="geometry" />
        </mxCell>
        <mxCell id="ms__zVoi5oWq5A_VaWb3-510" value="" style="ellipse;html=1;shape=startState;fillColor=#000000;strokeColor=#000000;" vertex="1" parent="1">
          <mxGeometry x="284.99" y="8010" width="30" height="30" as="geometry" />
        </mxCell>
        <mxCell id="ms__zVoi5oWq5A_VaWb3-511" value="" style="edgeStyle=orthogonalEdgeStyle;html=1;verticalAlign=bottom;endArrow=open;endSize=8;strokeColor=#000000;rounded=0;entryX=0.5;entryY=0;entryDx=0;entryDy=0;" edge="1" parent="1" source="ms__zVoi5oWq5A_VaWb3-510" target="ms__zVoi5oWq5A_VaWb3-513">
          <mxGeometry relative="1" as="geometry">
            <mxPoint x="299.98999999999995" y="8080" as="targetPoint" />
          </mxGeometry>
        </mxCell>
        <mxCell id="ms__zVoi5oWq5A_VaWb3-513" value="&lt;font style=&quot;font-size: 14px;&quot;&gt;Open OJT module page&lt;/font&gt;" style="rounded=1;whiteSpace=wrap;html=1;fillColor=none;" vertex="1" parent="1">
          <mxGeometry x="239.99000000000004" y="8080" width="120" height="60" as="geometry" />
        </mxCell>
        <mxCell id="ms__zVoi5oWq5A_VaWb3-514" value="&lt;p data-pm-slice=&quot;1 1 [&amp;quot;list&amp;quot;,{&amp;quot;spread&amp;quot;:false,&amp;quot;start&amp;quot;:919,&amp;quot;end&amp;quot;:1227},&amp;quot;regular_list_item&amp;quot;,{&amp;quot;start&amp;quot;:966,&amp;quot;end&amp;quot;:1227},&amp;quot;ordered_list&amp;quot;,{&amp;quot;spread&amp;quot;:false,&amp;quot;startingNumber&amp;quot;:1,&amp;quot;start&amp;quot;:981,&amp;quot;end&amp;quot;:1227},&amp;quot;regular_list_item&amp;quot;,{&amp;quot;start&amp;quot;:992,&amp;quot;end&amp;quot;:1026}]&quot;&gt;&lt;span style=&quot;font-size: 14px;&quot;&gt;Analyst task page&amp;nbsp;&lt;/span&gt;&lt;/p&gt;" style="rounded=1;whiteSpace=wrap;html=1;fillColor=none;" vertex="1" parent="1">
          <mxGeometry x="166.00000000000003" y="8240" width="120" height="60" as="geometry" />
        </mxCell>
        <mxCell id="ms__zVoi5oWq5A_VaWb3-515" value="&lt;p data-pm-slice=&quot;1 1 [&amp;quot;list&amp;quot;,{&amp;quot;spread&amp;quot;:false,&amp;quot;start&amp;quot;:2614,&amp;quot;end&amp;quot;:2877},&amp;quot;regular_list_item&amp;quot;,{&amp;quot;start&amp;quot;:2644,&amp;quot;end&amp;quot;:2877},&amp;quot;ordered_list&amp;quot;,{&amp;quot;spread&amp;quot;:false,&amp;quot;startingNumber&amp;quot;:1,&amp;quot;start&amp;quot;:2659,&amp;quot;end&amp;quot;:2877},&amp;quot;regular_list_item&amp;quot;,{&amp;quot;start&amp;quot;:2708,&amp;quot;end&amp;quot;:2745}]&quot;&gt;&lt;font style=&quot;font-size: 14px;&quot;&gt;Generate Report and upload&lt;/font&gt;&lt;/p&gt;" style="rounded=1;whiteSpace=wrap;html=1;fillColor=none;" vertex="1" parent="1">
          <mxGeometry x="248.79000000000005" y="8410" width="120" height="60" as="geometry" />
        </mxCell>
        <mxCell id="ms__zVoi5oWq5A_VaWb3-516" value="" style="edgeStyle=orthogonalEdgeStyle;rounded=0;orthogonalLoop=1;jettySize=auto;html=1;exitX=0.5;exitY=1;exitDx=0;exitDy=0;entryX=0.127;entryY=0.78;entryDx=0;entryDy=0;entryPerimeter=0;" edge="1" parent="1" source="ms__zVoi5oWq5A_VaWb3-514" target="ms__zVoi5oWq5A_VaWb3-540">
          <mxGeometry relative="1" as="geometry">
            <mxPoint x="309.98999999999995" y="8160" as="sourcePoint" />
            <mxPoint x="345.39" y="8355" as="targetPoint" />
          </mxGeometry>
        </mxCell>
        <mxCell id="ms__zVoi5oWq5A_VaWb3-520" value="" style="edgeStyle=orthogonalEdgeStyle;rounded=0;orthogonalLoop=1;jettySize=auto;html=1;exitX=1;exitY=0.5;exitDx=0;exitDy=0;entryX=0;entryY=0.5;entryDx=0;entryDy=0;" edge="1" parent="1" source="ms__zVoi5oWq5A_VaWb3-515" target="ms__zVoi5oWq5A_VaWb3-532">
          <mxGeometry relative="1" as="geometry">
            <mxPoint x="564.9899999999999" y="8419.09" as="sourcePoint" />
            <mxPoint x="476.73000000000013" y="8410" as="targetPoint" />
          </mxGeometry>
        </mxCell>
        <mxCell id="ms__zVoi5oWq5A_VaWb3-525" value="" style="endArrow=none;html=1;rounded=0;" edge="1" parent="1">
          <mxGeometry width="50" height="50" relative="1" as="geometry">
            <mxPoint x="480.39" y="8570" as="sourcePoint" />
            <mxPoint x="480.22999999999996" y="7950" as="targetPoint" />
          </mxGeometry>
        </mxCell>
        <mxCell id="ms__zVoi5oWq5A_VaWb3-526" value="&lt;span style=&quot;font-size: 14px;&quot;&gt;Administrator&lt;/span&gt;" style="text;html=1;align=center;verticalAlign=middle;whiteSpace=wrap;rounded=0;" vertex="1" parent="1">
          <mxGeometry x="276" y="7960" width="60" height="30" as="geometry" />
        </mxCell>
        <mxCell id="ms__zVoi5oWq5A_VaWb3-527" value="" style="endArrow=classic;html=1;rounded=0;exitX=0.5;exitY=1;exitDx=0;exitDy=0;entryX=0.5;entryY=0;entryDx=0;entryDy=0;" edge="1" parent="1" source="ms__zVoi5oWq5A_VaWb3-532" target="ms__zVoi5oWq5A_VaWb3-528">
          <mxGeometry width="50" height="50" relative="1" as="geometry">
            <mxPoint x="680.05" y="8460" as="sourcePoint" />
            <mxPoint x="680.05" y="8500" as="targetPoint" />
            <Array as="points" />
          </mxGeometry>
        </mxCell>
        <mxCell id="ms__zVoi5oWq5A_VaWb3-528" value="" style="ellipse;html=1;shape=endState;fillColor=#000000;strokeColor=#000000;" vertex="1" parent="1">
          <mxGeometry x="585.18" y="8510" width="30" height="30" as="geometry" />
        </mxCell>
        <mxCell id="ms__zVoi5oWq5A_VaWb3-529" value="" style="endArrow=none;html=1;rounded=0;exitX=-0.003;exitY=0.069;exitDx=0;exitDy=0;exitPerimeter=0;" edge="1" parent="1">
          <mxGeometry width="50" height="50" relative="1" as="geometry">
            <mxPoint x="126.66100000000002" y="7988.890000000001" as="sourcePoint" />
            <mxPoint x="705.39" y="7989" as="targetPoint" />
          </mxGeometry>
        </mxCell>
        <mxCell id="ms__zVoi5oWq5A_VaWb3-530" value="" style="rounded=0;whiteSpace=wrap;html=1;fillColor=none;" vertex="1" parent="1">
          <mxGeometry x="125.39" y="7950" width="579.79" height="620" as="geometry" />
        </mxCell>
        <mxCell id="ms__zVoi5oWq5A_VaWb3-532" value="&lt;span style=&quot;font-size: 14px;&quot;&gt;Notify Trainee that the report is uploaded&lt;/span&gt;" style="rounded=1;whiteSpace=wrap;html=1;fillColor=none;" vertex="1" parent="1">
          <mxGeometry x="540.18" y="8410" width="120" height="60" as="geometry" />
        </mxCell>
        <mxCell id="ms__zVoi5oWq5A_VaWb3-533" value="&lt;span style=&quot;font-size: 14px;&quot;&gt;Server&lt;/span&gt;" style="text;html=1;align=center;verticalAlign=middle;whiteSpace=wrap;rounded=0;" vertex="1" parent="1">
          <mxGeometry x="547.04" y="7960" width="93.01" height="30" as="geometry" />
        </mxCell>
        <mxCell id="ms__zVoi5oWq5A_VaWb3-536" style="edgeStyle=orthogonalEdgeStyle;rounded=0;orthogonalLoop=1;jettySize=auto;html=1;entryX=0.5;entryY=0;entryDx=0;entryDy=0;" edge="1" parent="1" source="ms__zVoi5oWq5A_VaWb3-534" target="ms__zVoi5oWq5A_VaWb3-514">
          <mxGeometry relative="1" as="geometry">
            <Array as="points">
              <mxPoint x="285.39" y="8220" />
              <mxPoint x="225.39000000000001" y="8220" />
              <mxPoint x="225.39000000000001" y="8240" />
            </Array>
          </mxGeometry>
        </mxCell>
        <mxCell id="ms__zVoi5oWq5A_VaWb3-534" value="" style="html=1;points=[];perimeter=orthogonalPerimeter;fillColor=strokeColor;direction=south;" vertex="1" parent="1">
          <mxGeometry x="263.17999999999995" y="8190" width="80" height="5" as="geometry" />
        </mxCell>
        <mxCell id="ms__zVoi5oWq5A_VaWb3-535" value="&lt;p data-pm-slice=&quot;1 1 [&amp;quot;list&amp;quot;,{&amp;quot;spread&amp;quot;:false,&amp;quot;start&amp;quot;:2614,&amp;quot;end&amp;quot;:2877},&amp;quot;regular_list_item&amp;quot;,{&amp;quot;start&amp;quot;:2644,&amp;quot;end&amp;quot;:2877},&amp;quot;ordered_list&amp;quot;,{&amp;quot;spread&amp;quot;:false,&amp;quot;startingNumber&amp;quot;:1,&amp;quot;start&amp;quot;:2659,&amp;quot;end&amp;quot;:2877},&amp;quot;regular_list_item&amp;quot;,{&amp;quot;start&amp;quot;:2708,&amp;quot;end&amp;quot;:2745}]&quot;&gt;&lt;span style=&quot;font-size: 14px;&quot;&gt;Analyst training log sction&lt;/span&gt;&lt;/p&gt;" style="rounded=1;whiteSpace=wrap;html=1;fillColor=none;" vertex="1" parent="1">
          <mxGeometry x="324.99000000000007" y="8240" width="120" height="60" as="geometry" />
        </mxCell>
        <mxCell id="ms__zVoi5oWq5A_VaWb3-539" value="" style="endArrow=classic;html=1;rounded=0;exitX=0.5;exitY=1;exitDx=0;exitDy=0;entryX=0.5;entryY=0.525;entryDx=0;entryDy=0;entryPerimeter=0;" edge="1" parent="1" source="ms__zVoi5oWq5A_VaWb3-513" target="ms__zVoi5oWq5A_VaWb3-534">
          <mxGeometry width="50" height="50" relative="1" as="geometry">
            <mxPoint x="405.39" y="8270" as="sourcePoint" />
            <mxPoint x="455.39" y="8220" as="targetPoint" />
          </mxGeometry>
        </mxCell>
        <mxCell id="ms__zVoi5oWq5A_VaWb3-543" value="" style="edgeStyle=orthogonalEdgeStyle;rounded=0;orthogonalLoop=1;jettySize=auto;html=1;" edge="1" parent="1" source="ms__zVoi5oWq5A_VaWb3-540" target="ms__zVoi5oWq5A_VaWb3-515">
          <mxGeometry relative="1" as="geometry">
            <Array as="points">
              <mxPoint x="304.39" y="8395" />
              <mxPoint x="305.39" y="8395" />
            </Array>
          </mxGeometry>
        </mxCell>
        <mxCell id="ms__zVoi5oWq5A_VaWb3-540" value="" style="html=1;points=[];perimeter=orthogonalPerimeter;fillColor=strokeColor;direction=south;" vertex="1" parent="1">
          <mxGeometry x="264.71999999999997" y="8370" width="80" height="5" as="geometry" />
        </mxCell>
        <mxCell id="ms__zVoi5oWq5A_VaWb3-541" style="edgeStyle=orthogonalEdgeStyle;rounded=0;orthogonalLoop=1;jettySize=auto;html=1;exitX=0.5;exitY=1;exitDx=0;exitDy=0;entryX=0.01;entryY=0.305;entryDx=0;entryDy=0;entryPerimeter=0;" edge="1" parent="1" source="ms__zVoi5oWq5A_VaWb3-535" target="ms__zVoi5oWq5A_VaWb3-540">
          <mxGeometry relative="1" as="geometry">
            <mxPoint x="379.39" y="8360" as="targetPoint" />
          </mxGeometry>
        </mxCell>
        <mxCell id="ms__zVoi5oWq5A_VaWb3-542" value="" style="endArrow=classic;html=1;rounded=0;exitX=0.778;exitY=0.278;exitDx=0;exitDy=0;exitPerimeter=0;" edge="1" parent="1" source="ms__zVoi5oWq5A_VaWb3-534">
          <mxGeometry width="50" height="50" relative="1" as="geometry">
            <mxPoint x="315.39" y="8290" as="sourcePoint" />
            <mxPoint x="365.39" y="8240" as="targetPoint" />
            <Array as="points">
              <mxPoint x="321.39" y="8220" />
              <mxPoint x="365.39" y="8220" />
            </Array>
          </mxGeometry>
        </mxCell>
        <mxCell id="ms__zVoi5oWq5A_VaWb3-546" value="&lt;font style=&quot;font-size: 18px;&quot;&gt;Schedule Calendar Events&lt;/font&gt;" style="text;html=1;align=center;verticalAlign=middle;whiteSpace=wrap;rounded=0;" vertex="1" parent="1">
          <mxGeometry x="118.77999999999999" y="8935" width="291.22" height="30" as="geometry" />
        </mxCell>
        <mxCell id="ms__zVoi5oWq5A_VaWb3-547" value="" style="ellipse;html=1;shape=startState;fillColor=#000000;strokeColor=#000000;" vertex="1" parent="1">
          <mxGeometry x="213.65000000000006" y="9085" width="30" height="30" as="geometry" />
        </mxCell>
        <mxCell id="ms__zVoi5oWq5A_VaWb3-548" value="" style="edgeStyle=orthogonalEdgeStyle;html=1;verticalAlign=bottom;endArrow=open;endSize=8;strokeColor=#000000;rounded=0;entryX=0.5;entryY=0;entryDx=0;entryDy=0;" edge="1" parent="1" source="ms__zVoi5oWq5A_VaWb3-547" target="ms__zVoi5oWq5A_VaWb3-550">
          <mxGeometry relative="1" as="geometry">
            <mxPoint x="228.65000000000006" y="9155" as="targetPoint" />
          </mxGeometry>
        </mxCell>
        <mxCell id="ms__zVoi5oWq5A_VaWb3-549" value="" style="edgeStyle=orthogonalEdgeStyle;rounded=0;orthogonalLoop=1;jettySize=auto;html=1;exitX=0.5;exitY=1;exitDx=0;exitDy=0;entryX=0.5;entryY=0;entryDx=0;entryDy=0;" edge="1" parent="1" source="ms__zVoi5oWq5A_VaWb3-550" target="ms__zVoi5oWq5A_VaWb3-551">
          <mxGeometry relative="1" as="geometry">
            <mxPoint x="235.65000000000006" y="9365" as="sourcePoint" />
            <mxPoint x="228.65000000000006" y="9275" as="targetPoint" />
          </mxGeometry>
        </mxCell>
        <mxCell id="ms__zVoi5oWq5A_VaWb3-550" value="&lt;font style=&quot;font-size: 14px;&quot;&gt;Open OJT module page&lt;/font&gt;" style="rounded=1;whiteSpace=wrap;html=1;fillColor=none;" vertex="1" parent="1">
          <mxGeometry x="168.65000000000003" y="9155" width="120" height="60" as="geometry" />
        </mxCell>
        <mxCell id="ms__zVoi5oWq5A_VaWb3-551" value="&lt;p data-pm-slice=&quot;1 1 [&amp;quot;list&amp;quot;,{&amp;quot;spread&amp;quot;:false,&amp;quot;start&amp;quot;:919,&amp;quot;end&amp;quot;:1227},&amp;quot;regular_list_item&amp;quot;,{&amp;quot;start&amp;quot;:966,&amp;quot;end&amp;quot;:1227},&amp;quot;ordered_list&amp;quot;,{&amp;quot;spread&amp;quot;:false,&amp;quot;startingNumber&amp;quot;:1,&amp;quot;start&amp;quot;:981,&amp;quot;end&amp;quot;:1227},&amp;quot;regular_list_item&amp;quot;,{&amp;quot;start&amp;quot;:992,&amp;quot;end&amp;quot;:1026}]&quot;&gt;&lt;span style=&quot;font-size: 14px;&quot;&gt;Open the&amp;nbsp; Calendar&lt;/span&gt;&lt;/p&gt;" style="rounded=1;whiteSpace=wrap;html=1;fillColor=none;" vertex="1" parent="1">
          <mxGeometry x="168.65000000000003" y="9255" width="120" height="60" as="geometry" />
        </mxCell>
        <mxCell id="ms__zVoi5oWq5A_VaWb3-552" value="&lt;p data-pm-slice=&quot;1 1 [&amp;quot;list&amp;quot;,{&amp;quot;spread&amp;quot;:false,&amp;quot;start&amp;quot;:2614,&amp;quot;end&amp;quot;:2877},&amp;quot;regular_list_item&amp;quot;,{&amp;quot;start&amp;quot;:2644,&amp;quot;end&amp;quot;:2877},&amp;quot;ordered_list&amp;quot;,{&amp;quot;spread&amp;quot;:false,&amp;quot;startingNumber&amp;quot;:1,&amp;quot;start&amp;quot;:2659,&amp;quot;end&amp;quot;:2877},&amp;quot;regular_list_item&amp;quot;,{&amp;quot;start&amp;quot;:2708,&amp;quot;end&amp;quot;:2745}]&quot;&gt;&lt;font style=&quot;font-size: 14px;&quot;&gt;Add event details&lt;/font&gt;&lt;/p&gt;" style="rounded=1;whiteSpace=wrap;html=1;fillColor=none;" vertex="1" parent="1">
          <mxGeometry x="168.65000000000003" y="9355" width="120" height="60" as="geometry" />
        </mxCell>
        <mxCell id="ms__zVoi5oWq5A_VaWb3-553" value="" style="edgeStyle=orthogonalEdgeStyle;rounded=0;orthogonalLoop=1;jettySize=auto;html=1;exitX=0.5;exitY=1;exitDx=0;exitDy=0;entryX=0.5;entryY=0;entryDx=0;entryDy=0;" edge="1" parent="1" source="ms__zVoi5oWq5A_VaWb3-551" target="ms__zVoi5oWq5A_VaWb3-552">
          <mxGeometry relative="1" as="geometry">
            <mxPoint x="238.65000000000006" y="9235" as="sourcePoint" />
            <mxPoint x="238.65000000000006" y="9285" as="targetPoint" />
          </mxGeometry>
        </mxCell>
        <mxCell id="ms__zVoi5oWq5A_VaWb3-562" value="" style="endArrow=none;html=1;rounded=0;" edge="1" parent="1">
          <mxGeometry width="50" height="50" relative="1" as="geometry">
            <mxPoint x="425.25" y="9765" as="sourcePoint" />
            <mxPoint x="425.05" y="9025" as="targetPoint" />
          </mxGeometry>
        </mxCell>
        <mxCell id="ms__zVoi5oWq5A_VaWb3-563" value="&lt;span style=&quot;font-size: 14px;&quot;&gt;Administrator&lt;/span&gt;" style="text;html=1;align=center;verticalAlign=middle;whiteSpace=wrap;rounded=0;" vertex="1" parent="1">
          <mxGeometry x="204.66000000000005" y="9035" width="60" height="30" as="geometry" />
        </mxCell>
        <mxCell id="ms__zVoi5oWq5A_VaWb3-566" value="" style="endArrow=none;html=1;rounded=0;exitX=-0.003;exitY=0.069;exitDx=0;exitDy=0;exitPerimeter=0;" edge="1" parent="1">
          <mxGeometry width="50" height="50" relative="1" as="geometry">
            <mxPoint x="112.18099999999997" y="9072.61" as="sourcePoint" />
            <mxPoint x="760" y="9073" as="targetPoint" />
          </mxGeometry>
        </mxCell>
        <mxCell id="ms__zVoi5oWq5A_VaWb3-567" value="" style="rounded=0;whiteSpace=wrap;html=1;fillColor=none;" vertex="1" parent="1">
          <mxGeometry x="110" y="9020" width="650" height="740" as="geometry" />
        </mxCell>
        <mxCell id="ms__zVoi5oWq5A_VaWb3-570" value="&lt;span style=&quot;font-size: 14px;&quot;&gt;Server&lt;/span&gt;" style="text;html=1;align=center;verticalAlign=middle;whiteSpace=wrap;rounded=0;" vertex="1" parent="1">
          <mxGeometry x="521.67" y="9035" width="60" height="30" as="geometry" />
        </mxCell>
        <mxCell id="ms__zVoi5oWq5A_VaWb3-599" style="edgeStyle=orthogonalEdgeStyle;rounded=0;orthogonalLoop=1;jettySize=auto;html=1;exitX=0.5;exitY=1;exitDx=0;exitDy=0;exitPerimeter=0;entryX=1;entryY=0.5;entryDx=0;entryDy=0;" edge="1" parent="1" source="ms__zVoi5oWq5A_VaWb3-585" target="ms__zVoi5oWq5A_VaWb3-600">
          <mxGeometry relative="1" as="geometry">
            <mxPoint x="300" y="9520" as="targetPoint" />
            <Array as="points">
              <mxPoint x="507" y="9520" />
            </Array>
          </mxGeometry>
        </mxCell>
        <mxCell id="ms__zVoi5oWq5A_VaWb3-585" value="" style="strokeWidth=2;html=1;shape=mxgraph.flowchart.decision;whiteSpace=wrap;fillColor=none;" vertex="1" parent="1">
          <mxGeometry x="457.4399999999999" y="9335" width="100" height="100" as="geometry" />
        </mxCell>
        <mxCell id="ms__zVoi5oWq5A_VaWb3-586" value="[Invalid attempt]&lt;span style=&quot;color: rgba(0, 0, 0, 0); font-family: monospace; font-size: 0px; text-align: start; background-color: rgb(251, 251, 251);&quot;&gt;%3CmxGraphModel%3E%3Croot%3E%3CmxCell%20id%3D%220%22%2F%3E%3CmxCell%20id%3D%221%22%20parent%3D%220%22%2F%3E%3CmxCell%20id%3D%222%22%20value%3D%22%22%20style%3D%22edgeStyle%3DorthogonalEdgeStyle%3Brounded%3D0%3BorthogonalLoop%3D1%3BjettySize%3Dauto%3Bhtml%3D1%3BexitX%3D1%3BexitY%3D0.5%3BexitDx%3D0%3BexitDy%3D0%3BentryX%3D0%3BentryY%3D0.5%3BentryDx%3D0%3BentryDy%3D0%3BentryPerimeter%3D0%3B%22%20edge%3D%221%22%20parent%3D%221%22%3E%3CmxGeometry%20relative%3D%221%22%20as%3D%22geometry%22%3E%3CmxPoint%20x%3D%22328%22%20y%3D%22-240%22%20as%3D%22sourcePoint%22%2F%3E%3CmxPoint%20x%3D%22523%22%20y%3D%22-240%22%20as%3D%22targetPoint%22%2F%3E%3C%2FmxGeometry%3E%3C%2FmxCell%3E%3C%2Froot%3E%3C%2FmxGraphModel%3E&lt;/span&gt;&lt;span style=&quot;color: rgba(0, 0, 0, 0); font-family: monospace; font-size: 0px; text-align: start; background-color: rgb(251, 251, 251);&quot;&gt;%3CmxGraphModel%3E%3Croot%3E%3CmxCell%20id%3D%220%22%2F%3E%3CmxCell%20id%3D%221%22%20parent%3D%220%22%2F%3E%3CmxCell%20id%3D%222%22%20value%3D%22%22%20style%3D%22edgeStyle%3DorthogonalEdgeStyle%3Brounded%3D0%3BorthogonalLoop%3D1%3BjettySize%3Dauto%3Bhtml%3D1%3BexitX%3D1%3BexitY%3D0.5%3BexitDx%3D0%3BexitDy%3D0%3BentryX%3D0%3BentryY%3D0.5%3BentryDx%3D0%3BentryDy%3D0%3BentryPerimeter%3D0%3B%22%20edge%3D%221%22%20parent%3D%221%22%3E%3CmxGeometry%20relative%3D%221%22%20as%3D%22geometry%22%3E%3CmxPoint%20x%3D%22328%22%20y%3D%22-240%22%20as%3D%22sourcePoint%22%2F%3E%3CmxPoint%20x%3D%22523%22%20y%3D%22-240%22%20as%3D%22targetPoint%22%2F%3E%3C%2FmxGeometry%3E%3C%2FmxCell%3E%3C%2Froot%3E%3C%2FmxGraphModel%3E&lt;/span&gt;" style="edgeLabel;html=1;align=center;verticalAlign=middle;resizable=0;points=[];" vertex="1" connectable="0" parent="1">
          <mxGeometry x="469.2100000680275" y="9510" as="geometry" />
        </mxCell>
        <mxCell id="ms__zVoi5oWq5A_VaWb3-587" value="" style="edgeStyle=orthogonalEdgeStyle;rounded=0;orthogonalLoop=1;jettySize=auto;html=1;exitX=1;exitY=0.5;exitDx=0;exitDy=0;exitPerimeter=0;entryX=0.5;entryY=0;entryDx=0;entryDy=0;" edge="1" parent="1" source="ms__zVoi5oWq5A_VaWb3-585">
          <mxGeometry relative="1" as="geometry">
            <mxPoint x="522.4399999999998" y="9490" as="sourcePoint" />
            <mxPoint x="605.6399999999999" y="9540" as="targetPoint" />
          </mxGeometry>
        </mxCell>
        <mxCell id="ms__zVoi5oWq5A_VaWb3-588" value="[Valid attempt]" style="edgeLabel;html=1;align=center;verticalAlign=middle;resizable=0;points=[];" vertex="1" connectable="0" parent="ms__zVoi5oWq5A_VaWb3-587">
          <mxGeometry x="-0.583" y="-5" relative="1" as="geometry">
            <mxPoint x="5" y="25" as="offset" />
          </mxGeometry>
        </mxCell>
        <mxCell id="ms__zVoi5oWq5A_VaWb3-589" value="&lt;span style=&quot;font-size: 14px;&quot;&gt;Save changes and update calendar&lt;/span&gt;" style="rounded=1;whiteSpace=wrap;html=1;fillColor=none;" vertex="1" parent="1">
          <mxGeometry x="475.99000000000007" y="9600" width="120" height="60" as="geometry" />
        </mxCell>
        <mxCell id="ms__zVoi5oWq5A_VaWb3-590" value="" style="endArrow=classic;html=1;rounded=0;exitX=0.5;exitY=1;exitDx=0;exitDy=0;" edge="1" parent="1" source="ms__zVoi5oWq5A_VaWb3-589">
          <mxGeometry width="50" height="50" relative="1" as="geometry">
            <mxPoint x="335.99000000000007" y="9610" as="sourcePoint" />
            <mxPoint x="536.19" y="9710" as="targetPoint" />
          </mxGeometry>
        </mxCell>
        <mxCell id="ms__zVoi5oWq5A_VaWb3-591" value="" style="ellipse;html=1;shape=endState;fillColor=#000000;strokeColor=#000000;" vertex="1" parent="1">
          <mxGeometry x="520.9900000000002" y="9710" width="30" height="30" as="geometry" />
        </mxCell>
        <mxCell id="ms__zVoi5oWq5A_VaWb3-592" value="&lt;font style=&quot;font-size: 14px;&quot;&gt;Notify Trainees and Trainers&lt;/font&gt;" style="rounded=1;whiteSpace=wrap;html=1;fillColor=none;" vertex="1" parent="1">
          <mxGeometry x="610" y="9600" width="120" height="60" as="geometry" />
        </mxCell>
        <mxCell id="ms__zVoi5oWq5A_VaWb3-593" value="" style="endArrow=classic;html=1;rounded=0;exitX=0.5;exitY=1;exitDx=0;exitDy=0;" edge="1" parent="1" source="ms__zVoi5oWq5A_VaWb3-592">
          <mxGeometry width="50" height="50" relative="1" as="geometry">
            <mxPoint x="632.25" y="9580" as="sourcePoint" />
            <mxPoint x="670" y="9710" as="targetPoint" />
          </mxGeometry>
        </mxCell>
        <mxCell id="ms__zVoi5oWq5A_VaWb3-594" value="" style="ellipse;html=1;shape=endState;fillColor=#000000;strokeColor=#000000;" vertex="1" parent="1">
          <mxGeometry x="655" y="9710" width="30" height="30" as="geometry" />
        </mxCell>
        <mxCell id="ms__zVoi5oWq5A_VaWb3-595" value="" style="html=1;points=[];perimeter=orthogonalPerimeter;fillColor=strokeColor;direction=south;" vertex="1" parent="1">
          <mxGeometry x="567.75" y="9540" width="80" height="5" as="geometry" />
        </mxCell>
        <mxCell id="ms__zVoi5oWq5A_VaWb3-596" value="" style="endArrow=classic;html=1;rounded=0;exitX=0.5;exitY=1;exitDx=0;exitDy=0;entryX=0.5;entryY=0;entryDx=0;entryDy=0;" edge="1" parent="1" target="ms__zVoi5oWq5A_VaWb3-589">
          <mxGeometry width="50" height="50" relative="1" as="geometry">
            <mxPoint x="592.31" y="9545" as="sourcePoint" />
            <mxPoint x="592.5" y="9595" as="targetPoint" />
            <Array as="points">
              <mxPoint x="592" y="9570" />
              <mxPoint x="536" y="9570" />
            </Array>
          </mxGeometry>
        </mxCell>
        <mxCell id="ms__zVoi5oWq5A_VaWb3-597" value="" style="endArrow=classic;html=1;rounded=0;exitX=0.5;exitY=1;exitDx=0;exitDy=0;entryX=0.5;entryY=0;entryDx=0;entryDy=0;" edge="1" parent="1" target="ms__zVoi5oWq5A_VaWb3-592">
          <mxGeometry width="50" height="50" relative="1" as="geometry">
            <mxPoint x="616.1600000000001" y="9545" as="sourcePoint" />
            <mxPoint x="559.8500000000001" y="9600" as="targetPoint" />
            <Array as="points">
              <mxPoint x="615.8500000000001" y="9570" />
              <mxPoint x="670" y="9570" />
            </Array>
          </mxGeometry>
        </mxCell>
        <mxCell id="ms__zVoi5oWq5A_VaWb3-598" style="edgeStyle=orthogonalEdgeStyle;rounded=0;orthogonalLoop=1;jettySize=auto;html=1;exitX=1;exitY=0.5;exitDx=0;exitDy=0;entryX=0;entryY=0.5;entryDx=0;entryDy=0;entryPerimeter=0;" edge="1" parent="1" source="ms__zVoi5oWq5A_VaWb3-552" target="ms__zVoi5oWq5A_VaWb3-585">
          <mxGeometry relative="1" as="geometry">
            <mxPoint x="380" y="9390" as="targetPoint" />
          </mxGeometry>
        </mxCell>
        <mxCell id="ms__zVoi5oWq5A_VaWb3-600" value="&lt;font style=&quot;font-size: 14px;&quot;&gt;Display error message&lt;/font&gt;" style="rounded=1;whiteSpace=wrap;html=1;fillColor=none;" vertex="1" parent="1">
          <mxGeometry x="174.66000000000005" y="9490" width="120" height="60" as="geometry" />
        </mxCell>
        <mxCell id="ms__zVoi5oWq5A_VaWb3-601" value="" style="ellipse;html=1;shape=endState;fillColor=#000000;strokeColor=#000000;" vertex="1" parent="1">
          <mxGeometry x="219.66000000000005" y="9590" width="30" height="30" as="geometry" />
        </mxCell>
        <mxCell id="ms__zVoi5oWq5A_VaWb3-602" value="" style="edgeStyle=orthogonalEdgeStyle;rounded=0;orthogonalLoop=1;jettySize=auto;html=1;exitX=0.5;exitY=1;exitDx=0;exitDy=0;" edge="1" parent="1" source="ms__zVoi5oWq5A_VaWb3-600">
          <mxGeometry relative="1" as="geometry">
            <mxPoint x="244.66000000000005" y="9410" as="sourcePoint" />
            <mxPoint x="234.66000000000005" y="9590" as="targetPoint" />
            <Array as="points">
              <mxPoint x="234.66000000000005" y="9590" />
              <mxPoint x="234.66000000000005" y="9590" />
            </Array>
          </mxGeometry>
        </mxCell>
      </root>
    </mxGraphModel>
  </diagram>
</mxfile>
